<svg id="Layer_2" data-name="Layer 2" xmlns="http://www.w3.org/2000/svg" viewBox="0 0 361.38 452.08"><title>NewYearCard</title><path d="M360,187.4c-8.4-2.32-16.89-3.44-25,1.12a6.87,6.87,0,0,1-1,.37c.15-.34.32-.67.45-1,.86-2.19,1.75-4.38,2.56-6.6s-.26-3.89-1.66-5.44c-1-1.16-6.54-.64-7.52.62a2.16,2.16,0,0,0-.28.6c1.84.79-.15,1-.32,1.29a18.31,18.31,0,0,1-1.79,2c-3.24,3.84-6.62,7.59-9.61,11.59-1.35,1.82-4.21,1.62-5.07,4.24-.43,1.3-3,2.1-4.65,2.93-6.56,3.23-13.72,4.88-20.83,6.63-1,.24-1.69.17-1.21-1.18,1.3-3.69,2.45-7.42,3.73-11.12.12-.34.72-.65,1.16-.76,1.74-.41,3.5-.7,5.23-1.1.39-.09.7-.46,1.05-.7-.28-.32-.49-.74-.85-.94a7.15,7.15,0,0,0-1.51-.44L279,185.73a3.19,3.19,0,0,1-.64-.32,2.92,2.92,0,0,1,.64-.27l3.95-.42c5.09-.58,7.18-1.88,7.42-5.52a114.45,114.45,0,0,0-.26-11.85,2.79,2.79,0,0,0-.67-1.31,11.06,11.06,0,0,1-2.09-9.55,8.41,8.41,0,0,0,.32-2.93c-.41-3.31-.9-6.62-1.49-9.91-.39-2.16-1.13-4.23-3.3-5.5-1.7-1-3.46-1.9-5.07-3a2.06,2.06,0,0,1-.78-1.78c1.21-4.91,1-9.78-1.88-14A84.42,84.42,0,0,0,265,106.81a86,86,0,0,0-20.59-15c-6-3.18-11.47-7.13-17.4-10.38-9.24-5.06-18.62-9.94-28.06-14.69-5.47-2.75-11.08-5.35-16.82-7.58-11.55-4.49-23.24-8.69-34.87-13-1.6-.59-3.42-.85-4.78-1.74a58.45,58.45,0,0,1-8.28-6.3,14.09,14.09,0,0,1-3.31-5.48c-1.23-3.52-.48-7.12.6-10.58a8.85,8.85,0,0,1,2.12-3.3c1.3-1.33,2.39-1,2.73.7a22.28,22.28,0,0,1,.28,4.24c0,2.29.35,4.43,2.08,6.22,1.2,1.23,3.9,1.64,5.22.54,2.59-2.15,4.38-5,4.22-8.13a15.46,15.46,0,0,0-9.41-13.92c-6.67-3-13.24-1.87-17.08,4.84a24.07,24.07,0,0,0-3.48,11.52c-.18,6.42.73,12.48,4.88,17.81,1.4,1.79,2.88,3.53,4.41,5.23A81.14,81.14,0,0,0,152.33,66c9.15,4.48,18.07,9.39,26.87,14.44,6.71,3.85,13.09,8.19,19.6,12.34a10.5,10.5,0,0,1,5.2,8.77c.31,9.07-2.57,17.26-7.94,24.85-2.13,3-3.11,6.54-1.5,10.24.09.21-.29.84-.56.91-4.21,1.18-6.12,4.07-6.95,7.83-1.22,5.47-.45,10.86,1,16.16.31,1.18,1.86,2.06,2.82,3.1.37.41,1,.89,1,1.33,0,2.35-.21,4.7-.38,7.05a1.59,1.59,0,0,1-.54.81c-.91.91-2.39,1.66-2.66,2.7-.49,1.85.7,3.26,2.64,4.06a2,2,0,0,1,1.14,1.18,24.8,24.8,0,0,1,.08,3.66,6.21,6.21,0,0,1-.12.85,3.45,3.45,0,0,1-.72-.56,56.17,56.17,0,0,1-4.69-6.44c-4.89-9-10.85-17.6-13.76-27.5-.11-.36-.7-.6-1.07-.9-.23.38-.69.8-.64,1.14.18,1.22.55,2.41.81,3.62a2.2,2.2,0,0,1-.12.83,3.13,3.13,0,0,1-.71-.25c-.32-.22-.55-.58-.9-.73-.7-.33-1.45-.55-2.18-.82.09.66.17,1.32.27,2a4.26,4.26,0,0,0,.19.7h-.71l-1.89,0c.19.6.37,1.2.57,1.79.11.32.25.63.38.94-.3-.07-.61-.12-.91-.22a6.4,6.4,0,0,0-1.11-.4,13.89,13.89,0,0,0-1.71-.08,5,5,0,0,1,0,1.49,1.42,1.42,0,0,1-.85.83,16.46,16.46,0,0,1-2.34.31c.36.76.68,1.53,1.11,2.26a10.63,10.63,0,0,0,1,1.25,17.86,17.86,0,0,0-1.91-.18c-.61,0-1.21.12-1.82.19.2.58.37,1.16.61,1.72a3.43,3.43,0,0,0,.53.69,9.4,9.4,0,0,1-.92-.2c-.94-.31-1.94-.87-2.24.71,0,.22-.51.41-.82.54-.59.24-1.21.43-1.81.64a8.41,8.41,0,0,0,1.48,1.75c2.35,1.57,5,2.79,7.14,4.6,7,6,11.28,13.66,15.07,21.6.36.77,0,1.85-.08,2.78a10.35,10.35,0,0,1-2.83-.48c-2.78-1.3-5.44-2.84-8.23-4.13a45,45,0,0,1-20-17.89c-2.22-3.68-3.14-8.19-3.91-12.43s-.34-8.54-.9-12.77a27.34,27.34,0,0,0-2.46-7.9c-.88-1.87-3-2.06-5-1.22-3,1.23-5,3.28-5.47,6.19-.56,3.2-.61,6.49-.88,9.74-.07,1-.15,1.9-.23,2.85-.91-.47-1.85-.89-2.7-1.44-5.34-3.41-11.07-5.3-17.43-3.06-4.55,1.6-9.24,3.3-11.17,8.16-.71,1.8-1.68,3.52-2.29,5.34-1.43,4.22-1.88,8.48.23,12.65a8,8,0,0,0,6,4.69q9.61,1.47,19.27,2.79a25,25,0,0,1,11.18,4.68c1.4,1,1.66,3.07,3.78,3.32.18,0,.32.35.48.54a3.5,3.5,0,0,1-.83.35c-1.32.15-2.64.26-4,.39-8.76.82-15.84,5.33-23.21,9.2-.26.14-.34.57-.5.86a3.74,3.74,0,0,0,1.31.57,12.41,12.41,0,0,0,2.15-.32c-.56.52-1.1,1-1.67,1.56a9.51,9.51,0,0,0-1,.88,10.84,10.84,0,0,0-.79,1.31A8.44,8.44,0,0,0,108,215a8.75,8.75,0,0,0,1.49-.51,6,6,0,0,1,1.06-.14,4.72,4.72,0,0,1-.64.88c-1.62,1.28-3.27,2.53-4.89,3.82a6.84,6.84,0,0,0-.87,1c.51.21,1,.62,1.52.58,1.25-.1,2.48-.4,3.72-.59a3.3,3.3,0,0,1,.88.07,2.3,2.3,0,0,1-.31.65q-2.25,2.46-4.52,4.9c-.4.43-.83.85-1.24,1.27a14.07,14.07,0,0,0,2.1.54,6.75,6.75,0,0,0,1.56-.25c.31,0,.62,0,.94,0a2.61,2.61,0,0,1-.29.84c-1.06,1.33-2.2,2.62-3.22,4a4.66,4.66,0,0,0-.52,1.51,5.62,5.62,0,0,0,1.81.11,19.14,19.14,0,0,0,2.57-1.17c-.45.8-.88,1.62-1.38,2.39-.3.48-.78.86-1,1.35a12.76,12.76,0,0,0-.64,1.69c.73,0,1.64.17,2.18-.15,4.23-2.51,8.31-5.27,12.61-7.67,7.94-4.44,17-5.52,25.9-6.66,2-.25,4.58-.81,5.87.07,1.55,1.05,2,3.51,2.91,5.36,0,.05.08.13.06.17-.18.43-.24,1.06-.58,1.25-5.85,3.38-11.58,7-17.65,10-10.38,5.13-18.87,12.2-26.52,20.42-11,11.81-17.28,25.23-17.51,41a11.83,11.83,0,0,1-.29,1.75,8.51,8.51,0,0,1-1.42-1.39c-.18-.26.13-.77.08-1.15a2,2,0,0,0-.48-1.06c-.69-.69-1.77-1.18-2.14-2-.74-1.57-.89-3.4-1.69-4.94-2.12-4-4.42-8-6.71-11.93-1.76-3-3.56-6-6.54-8.29a4.84,4.84,0,0,0-4.71-.85,18.33,18.33,0,0,0-12.09,9.78c-4,7.8-7.81,15.72-11.5,23.66A48.1,48.1,0,0,0,41.93,316c-1.1,5.64-1.43,11.41-2.11,17.12a5.82,5.82,0,0,1-.3,1,4.86,4.86,0,0,1-.86-.41c-1.29-1-2.52-2-3.86-2.9-4.32-2.89-8.65-5.79-14.34-2.92a2.68,2.68,0,0,1-.76.22C13,329.3,9,333.41,7,339.15a35.25,35.25,0,0,0-2.15,13.58c.06,1.09-.25,2.26.09,3.25a37.22,37.22,0,0,0,15.76,19.91c7.29,4.61,14.75,9,22.12,13.47,10.38,6.31,18.33,14.9,25.91,23.87,4.67,5.53,9.6,10.86,14.41,16.28l3.59,3.25c5.83,3.54,11.6,7.16,17.46,10.64,9.78,5.81,20.25,8.67,31.87,6,5.44-1.24,10.48-3.24,13.93-7.6,2.7-3.41,5.22-6.95,7.78-10.46a10.65,10.65,0,0,0,.88-1.94c.28.67.59,1.34.85,2,.1.29.07.63.18.91,2.31,5.76,2.85,12.22,7.82,16.94,2,1.87,3.43,4.25,5.55,5.93,5.9,4.67,12.19,4.84,18.46.86a20.19,20.19,0,0,0,9.26-12.85c1.32-5.49.44-10.7-1.28-15.9-.42-1.26-.52-1.84,1.28-1.88,2.36-.05,3.12-1.1,2.72-3.3-.65-3.5-3.71-4.35-6.75-5.21a11,11,0,0,1-1.32-.57l-1.66-2.13a7,7,0,0,1,1.48-.62c5.5-1,11.09-1.63,16.49-2.94,10.56-2.56,21-5.6,31.54-8.21,3.68-.91,4.78-3.44,6.29-6.14,0-.07.15-.11.2-.18a37.55,37.55,0,0,1,.42-5.18l-1.38-21.08a32.21,32.21,0,0,0-.58-3.67c-1.61-6.59-3.45-13.14-8.61-18.26-1.11-1.1-1-1.62,0-2.65,4.38-4.71,9.08-9.23,12.89-14.32,3.26-4.36,6.35-9.16,8-14.2,2.89-9,4.56-18.4,6.87-27.6,1.22-4.89,3-9.67,4-14.6,2.59-13,5.65-25.82,13.2-37.26a45.63,45.63,0,0,1,6.42-8,29.2,29.2,0,0,1,7.7-5.19,149.82,149.82,0,0,1,15.42-6.26c2.68-.91,5.85-.51,8.56-1.36,4.26-1.35,8.5-.77,12.77-.81,5.1,0,10.23.11,15.28-.36a13.85,13.85,0,0,0,7-2.66,21.45,21.45,0,0,0,8.42-15.25C366.56,193.05,364.31,188.59,360,187.4Zm-74.39,7.4c-1.16,3.09-2,6.28-3.25,9.35-1.87,4.68-5.34,8.28-9.17,11.72a69.38,69.38,0,0,1-19,12,27.49,27.49,0,0,1-11.62,1.92c-5.71-.22-11.37-1.49-17.07-2.24a23.94,23.94,0,0,1-13.11-5.71,53.31,53.31,0,0,1-15-21.14,74.93,74.93,0,0,1-2.71-8.71,51.26,51.26,0,0,1-1-7.31,5.49,5.49,0,0,1,.52-2.47c1.52.11,3.31,0,4,1.78a14,14,0,0,0,4.87,6.62c2.89,2.18,6,3.3,9.78,2.42a36.18,36.18,0,0,1,5.11-.76c5.86-.53,10.87-3,15.71-5.88a15.84,15.84,0,0,1,1.95-.92,12.64,12.64,0,0,1,1.24-.36c-.07.41-.13.82-.21,1.23-.57,3.1-1.59,6.34,1.73,8.69a7.87,7.87,0,0,0,3.63,1.24c4.49.41,9,.64,13.5.94,9.89.52,19.41-1.49,28.92-3.55C285.62,193.34,286.23,193.21,285.63,194.8Zm.34-5.3a32.93,32.93,0,0,0,3.46.84,2.67,2.67,0,0,1,.63.4,2.7,2.7,0,0,1-.65.3c-9.34,1.73-18.5,4.45-28.15,4.76-6.23-.29-12.46-.47-18.67-.9-3.56-.25-5-2-5-5.3,0-2.93.82-5.54,3.7-7.14a9.12,9.12,0,0,1,2.42-.54c-.14.57-.31,1.13-.42,1.7a20.93,20.93,0,0,0-.38,2.72c0,.23.47.49.73.74.18-.28.51-.56.53-.85.24-3.07,1.65-4.64,5.05-5.88,2.61-.95,4.35,0,6.46.14,1,.06,1.37.56.68,1.51a41.29,41.29,0,0,0-2.42,3.84c-.15.25,0,.65,0,1a3.56,3.56,0,0,0,.91-.55c1.46-1.62,2.84-3.3,4.34-4.89a1.92,1.92,0,0,1,1.5-.47,80.72,80.72,0,0,1,8.18,2.19C274.6,185.14,280.25,187.39,286,189.5Zm-28-24.27c-.33-1.08-.22-1.82,1.2-2l12-1.23c2.45.64,6,1.44,9.5,2.6a4.74,4.74,0,0,1,2.42,2.66,69.1,69.1,0,0,1,1.92,7.39c.53,2.28-.82,4.08-3.31,4.35a101.77,101.77,0,0,1-11.66,1c-2.42,0-4.85-1-7.22-1.74a2.49,2.49,0,0,1-1.31-1.52C260.3,173,259.19,169.09,258,165.23Zm27.71-12.64a6.93,6.93,0,0,1-1,2.17,2.29,2.29,0,0,1-1.93.26,21.34,21.34,0,0,1-1.72-3.24l1.38-.57a4.05,4.05,0,0,0,.7-.32c.67-.45,1.33-.93,2-1.39C285.3,150.4,285.48,151.31,285.72,152.59Zm-85.44,11.88c7.65-2.77,15.12-6.11,23-8.26,11.09-3.06,22.49-4.87,34.17-3.63,4.14.43,8.28.9,12.42,1.37a30.2,30.2,0,0,1,15.29,6c.24.19.26.64.39,1a2.78,2.78,0,0,1-.94-.27c-6.63-4.64-14.23-4.82-21.89-3.69-3.67.54-7.14,2.15-10.73,3.17a20.07,20.07,0,0,1-11.69-.06,26.18,26.18,0,0,0-14.87-.57,177.06,177.06,0,0,0-17.13,5.35c-4.08,1.53-6.51,5-8.51,8.52-1.24,2.19-3.81,3.19-5.92,1.81-.75-.49-.78-1.92-1.14-2.93l.29-.07c.09-1.36.17-2.72.27-4.08s-.13-2.89,2.54-2.38C197.15,166,198.81,165,200.28,164.47ZM196,156.4c1-.8,1.92-1.61,2.92-2.36.39-.3,1-.73,1.31-.62a2.6,2.6,0,0,1,1.46,1.22,32.4,32.4,0,0,1,1,3.93c.35,1.44-1.57,3.93-3.45,4.22-2.15.33-2.72-1.22-3-2.7A25.14,25.14,0,0,1,196,156.4Zm7.11-2.56L207,151a18.3,18.3,0,0,1,1.92,2.55c.43.85,1,2.05.62,2.75a7.86,7.86,0,0,1-2.7,2.64c-1.21.85-2.26.57-2.68-.92C203.79,156.72,203.48,155.45,203.06,153.84Zm7.5-1c-.05-.29.48-.7.8-1,.77-.75,1.6-1.43,2.33-2.2a11.71,11.71,0,0,0,1.08-1.53,15.9,15.9,0,0,1,2.67,2.17c.42.51.3,1.41.34,1.63-.12,3.89-.8,4.87-3.23,5.5a2.39,2.39,0,0,1-3-1.39A11.75,11.75,0,0,1,210.56,152.82Zm56.83-19.14c1.32.54,3.69-.06,3.12,2.39,0,1.78-.24,3.75-2.3,3.75-.81,0-1.7-2.18-2.41-3.45-.24-.43,0-1.08-.05-1.63C265.64,133.47,266.21,133.2,267.39,133.68Zm11.88,12a9.35,9.35,0,0,1-2.36,1.77c-.33.12-1.27-.81-1.68-1.42-.2-.28.15-.92.3-1.39.26-.79.55-1.57.83-2.35.82,1,3.18.85,2.42,3Zm.1,2.92a18.43,18.43,0,0,1,.25,3.47,5.51,5.51,0,0,1-.85,1.79,7.31,7.31,0,0,1-2-1.39c-.36-.48-.19-1.31-.29-2.23-.74-1.77,1.42-1.59,2.3-2.35C279,148.17,279.33,148.39,279.37,148.64ZM274.2,140a30.4,30.4,0,0,1-2.05-3.52c-.15-.33.53-1,.83-1.46l2.26,2.83C274.73,138.92,274.46,139.46,274.2,140Zm-.91,7.7c2.64.52,1.2,2.6,1.68,3.94.06.17-1,1-1.54,1-2.57.15-2.17-1.53-1.93-3.11C271.21,148.28,271.41,147.34,273.29,147.71Zm-.4-6.8c1.38.68,2.52,1.23.3,2.32-.21.1.11,1.08.12,1.65s-.09,1.12-.14,1.68c-.69-.27-1.78-.37-2-.83a12.65,12.65,0,0,1-.73-3.06c.19-1.39.32-2.28.44-3.16A16.75,16.75,0,0,0,272.89,140.91Zm-5,10.52c-1.66.09-2.82-1.61-2.84-4.74a12.88,12.88,0,0,1,3.74-1.13c.4,0,1.15,1.86,1.24,2.91C270.16,149.8,270,151.32,267.92,151.43Zm.76-10.16c.13,0,.34.63.79,1.52-.8.67-1.59,1.87-2.41,1.88s-1.89-1.09-2.24-1.94a19.79,19.79,0,0,1-.89-4.38c0-.14.15-.31.22-.46.24.12.62.2.69.38C265.52,140,266.24,141.52,268.68,141.27Zm-4.42,4.17a8,8,0,0,1-.56,2.92,10.57,10.57,0,0,1-1.82,2.12,15.13,15.13,0,0,1-2.12-2.28c-.54-.86-.55-1.74.89-2.13a5.6,5.6,0,0,0,1.86-1.25,7.26,7.26,0,0,0,.86-1.31C263.85,144.5,264.28,145,264.26,145.44ZM261,138.78c-2.23-.75-2-2.86-2.22-5.27.13-.19.51-1.27,1-1.31,2.86-.2,4.42.7,4.45,2.27C264.26,136.32,262.27,139.2,261,138.78Zm1.11,1c.16-.07.79.78.89.89,0,.72.09,1,0,1.08-1,1.16-1.84,3.11-3,3.26-1.68.23-2.9-1.33-2.94-3.19,0-1.29,0-2.59,0-3.89,0-.25.28-.5.44-.75.2.22.48.4.58.65C258.8,139.61,259.81,140.75,262.13,139.75Zm-10.94,7-2.55,2.45c-.86-.88-1.74-1.75-2.57-2.66,0-.05.4-.53.67-.73.51-.39,1.11-.69,1.6-1.09,1.07-.87,1.9-2.88,3.46-.3.24.41,1.79.21,2.73.17.6,0,1.67-.46,1.7-.38.61,1.35,2.91,2.3,1.45,4.14a3.31,3.31,0,0,1-2.39,1.21,4.77,4.77,0,0,1-2.47-1.49c-.41-.39-.33-1.18-.63-1.71a6.81,6.81,0,0,0-1.14-1.21l-.52,1.15ZM226,147.82a3.47,3.47,0,0,1,.9-1.67,10.7,10.7,0,0,1,1.85-1.29c.45-.3,1.18-.9,1.36-.79a6.06,6.06,0,0,1,1.21,1.47l-.46.29c.23,1,.5,2,.68,3.06.3,1.76-.86,3.62-2.38,3.71-2.23.13-2.76-1.26-2.87-3C226.29,149,225.94,148.39,226,147.82Zm-2.47-5.55a2.58,2.58,0,0,1-.17-2.44,6.74,6.74,0,0,1,3.13-2.35c.5-.15,1.72,1.19,2.31,2,.39.56.25,1.44.34,2.18l.51.44-3.27,3.06A21.26,21.26,0,0,1,223.57,142.27Zm6.68-3.68a6.85,6.85,0,0,1,2.38-1.49c1.61-.34,4.12,2.25,4.18,4,.06,1.57-1.73,3.22-3.46,3.2S230.3,142.14,230.25,138.59Zm4.26,6.55a6.23,6.23,0,0,0,2.1-1,20.08,20.08,0,0,1,.38,2.28c0,.81.21,1.82-.21,2.39a9.16,9.16,0,0,1-2.51,1.67A26.6,26.6,0,0,1,233,148C232.44,146.57,232.1,145.26,234.51,145.14Zm2.13-1c.4-.27,1-.83,1.15-.75a3.07,3.07,0,0,0,3.68-.09.73.73,0,0,1,.54-.06c1.17.57,2.61,5,1.7,5.94a4.25,4.25,0,0,1-3,1.41c-.71-.1-1.4-1.54-1.71-2.5C238.52,146.58,239.1,144.59,236.64,144.14Zm1.18-6.2c0-.44.62-.92,1.06-1.28a2.88,2.88,0,0,1,1,.72c.82.89,1.58,1.82,2.66,3.09l-2.65,2.38a9.55,9.55,0,0,1-1.57-2A7.43,7.43,0,0,1,237.82,137.94Zm6,5.32c-.14-.12-.39-.23-.41-.38-.08-.61-.1-1.23-.14-1.84l-.36-.23c.77-1.36,1.52-2.72,2.32-4.07.09-.15.4-.18.61-.27.35,2.05,3.74,1.18,3.84,3.64.09,2.12-1.06,3.32-2.72,4.38-1,.62-1.52.62-1.69-.64C245.2,143.07,245.05,141.93,243.86,143.26Zm7-5.73c-.06-.3.44-.7.68-1.05.23.27.45.54.69.81.73.81.93,2.4,2.74,1.6l.91,1.89a9.3,9.3,0,0,1-1,2.28c-.89,1.07-2.15,1.05-2.66-.2A28.69,28.69,0,0,1,250.85,137.53Zm4,0c-.18.11-1-.28-1.18-.59-.63-1.41-1.1-2.89-1.68-4.32a10.8,10.8,0,0,0-.84-1.42,6.22,6.22,0,0,0-.64,1.61,18.34,18.34,0,0,1-.15,2.89c-.17.6-1,1-1.48,1.55-.5-.45-1.3-.82-1.46-1.36-.4-1.34-.42-2.78-.77-4.14a7.88,7.88,0,0,0-1.1-1.88c-.17.64-.37,1.27-.49,1.92-.25,1.43-.4,2.88-.74,4.29-.05.2-.69,2.61-1.46.14,0-.14-.28-.23-.42-.34-.14.17-.35.32-.41.52a7,7,0,0,0-.14,1c-.28-.31-.73-.58-.81-.93-.34-1.43-.57-2.89-.83-4.33a7.71,7.71,0,0,0-.3-1.46,7.41,7.41,0,0,0-.85-1.27,4.59,4.59,0,0,0-.6,1.52,17.24,17.24,0,0,0,.35,2.75c.25,1.6-1.14,3.15-3.26,3.05-.7,0-1.49-1.37-1.94-2.24-.34-.68-.11-1.6-.34-2.37-.15-.5-.67-.9-1-1.34a5.66,5.66,0,0,0-.54,1.54,5.24,5.24,0,0,0,.31,1.82c.53,1.7-.54,2.43-2,2.81-1.68.44-2.26-.66-2.59-1.87-.2-.78-.11-1.63-.36-2.38a6,6,0,0,0-1.05-1.47,13.35,13.35,0,0,0-.51,1.59,44,44,0,0,1-.78,4.59c-.13.45-1.13.69-1.73,1a6.7,6.7,0,0,1-1-1.68c-.31-1.19-.34-2.45-.63-3.64-.12-.47-.6-.85-.95-1.26,2.61-.71,5.22-1.41,7.85-2a70.24,70.24,0,0,1,7.3-.82c6.21-.78,12.14.62,18.09,1.89a5.5,5.5,0,0,0,1,.21c1.7,0,2.64.44,2.84,2.27C257.74,135.56,256.39,136.57,254.87,137.55ZM223.39,145a5.79,5.79,0,0,1,1.05,1.56c.21.87,0,1.85.23,2.7.49,1.54.64,3-.84,4.05-.67.47-2.27.77-2.63.42a20.73,20.73,0,0,1-2.59-3.77c.61-.72.92-1.12,1.27-1.49.83-.87,1.67-1.74,2.51-2.59C222.7,145.59,223.05,145.31,223.39,145Zm57.74-3.17a1.67,1.67,0,0,1,1.3-.57c.53.09,1.3.47,1.41.86.43,1.48.62,3,1,5.08-.5.63-1.21,1.61-2.05,2.5-.12.13-1-.09-1.24-.36C280.28,148.05,280,143.29,281.13,141.85Zm-4.33-5.78c1.3,1.56,2.5,2.85,3.46,4.28.18.26-.48,1.29-1,1.58a1.83,1.83,0,0,1-1.64-.54,38.83,38.83,0,0,1-1.35-4.5C276.24,136.76,276.46,136.57,276.8,136.07Zm-15.56-30.41c2.84,3.09,5.77,6.13,8.44,9.35a48.32,48.32,0,0,1,4.44,6.55c1.9,3.24,1.75,6.79,1.43,10.33-.14,1.49-.79,2.08-2.49,1.5a26.76,26.76,0,0,0-4.78-1.11c-1.46-.22-1.86-.85-1.71-2.14a28.44,28.44,0,0,0,0-3.33l-2.89-15.26c-.55-2-2-3.7-3-5.54-.19-.34-.35-.69-.52-1A4.88,4.88,0,0,1,261.24,105.66ZM195.38,134a25.07,25.07,0,0,1,2.25-6.82c3.26-5.7,6.69-11.32,7.33-17.89a45.88,45.88,0,0,0,.16-10.14c-.52-4.22-3.66-6.9-7.41-9.12-6.1-3.61-11.93-7.62-18.11-11.11-8.84-5-17.75-9.92-26.91-14.4a86.17,86.17,0,0,1-26.2-19.85c-7-7.76-8.28-16.75-5.78-26.38a1.47,1.47,0,0,1,.34-.57c.07-.19.13-.37.21-.55a2.06,2.06,0,0,1,.36-.53c1.44-3.49,3.48-6.56,7.76-7.48a13.27,13.27,0,0,1,12.2,3.49,15.87,15.87,0,0,1,4.31,7.19c1,3.09,0,5.76-1.73,8.26-1.44,2.13-3.79,2.06-4.95-.23a15.89,15.89,0,0,1-1-4.84c-.24-1.59-.16-3.22-.51-4.78-.49-2.17-2.38-2.86-4.15-1.43a10.56,10.56,0,0,0-3.36,4c-1.53,4-2.32,8.25-1.16,12.56a10.52,10.52,0,0,0,3.72,6c3.25,2.51,5.85,5.76,10,7.26s8.11,3,12.17,4.54c3.4,1.25,6.82,2.45,10.23,3.67a19.51,19.51,0,0,1,2.85,1c2.82,1,5.62,2.07,8.4,3.18q9.33,3.75,18.46,7.95a10.8,10.8,0,0,1,2.93,1.36l1.28.59c5.73,2.72,11.4,5.58,17,8.52l.23,0a6.91,6.91,0,0,1,3,1.65c1,.54,2,1.06,3,1.6,4.58,2.47,8.83,5.47,13.3,8.14,3.4,2,6.83,4,10.38,5.83a37.05,37.05,0,0,1,15.27,14.76c3.64,6.16,4.51,13.13,4,20.19-.09,1.21-.59,1.68-2,1.4-6.75-1.31-5.46.23-6.6-6a44.49,44.49,0,0,0-10.23-21.39,143.77,143.77,0,0,0-9.94-11.16c.52.66,1,1.28,1.31,1.76l.93,1.28a11.8,11.8,0,0,1,3.56,5.3l0,0c.13.16.27.31.41.47,5,6.14,9.67,12.42,11.66,20.05.56,2.15.79,4.38,1.17,6.57.15,1.18-.18,1.56-1.56,1.28-2.84-.59-5.71-1.06-8.59-1.44-1.22-.16-1.92-.48-2-1.74-.55-7.39-4.67-13.7-7.33-20.45a35.6,35.6,0,0,0-4.17-7.59c.08.72.14,1.45.27,2.25a28.05,28.05,0,0,0,.87,3.26,132.75,132.75,0,0,1,5.91,12.53,56.54,56.54,0,0,1,2.71,8.29c.75,3.07.52,3.18-2.88,3.27-.33,0-.66,0-1,0l0-.18c-3.55.36-7.13.59-10.65,1.15-1.72.27-2-.24-1.83-1.58.41-3.87.85-7.74,1.15-11.63.61-7.91-2.79-14.69-6.78-21.33A42,42,0,0,0,215.26,91c5.42,6.07,9.59,16.19,9.51,25.08-.36,3-.89,7.51-1.53,12a2.07,2.07,0,0,1-1.21,1.4c-3.51,1.09-7.08,2.05-10.63,3.05-.46.13-.94.2-1.42.3.11-.48.2-1,.33-1.43,1.46-5.26,3.3-10.45,4.29-15.79,1.1-5.92,1-11.77-1.07-17.33-.91-.9-1.87-1.75-2.86-2.57a22,22,0,0,1,1.74,3.95,32.79,32.79,0,0,1,.41,18c-1.2,5.12-3,10.12-4.68,15.14a2.85,2.85,0,0,1-1.64,1.69,73.25,73.25,0,0,1-9.17,1.94A1.87,1.87,0,0,1,195.38,134Zm24.73.33c0,1.18.89,2.45-.94,3.39-4.66,2.38-4.64,2.41-5.69-2.17-.12-.53-.75-.95-1.15-1.42h0c2.69-.73,5.37-1.49,8.06-2.22a10.26,10.26,0,0,0-.47,1.52C219.87,133.72,220.12,134,220.11,134.34Zm-11.37,7.72a2.22,2.22,0,0,1-1.5-1.24,19.44,19.44,0,0,1-.86-3.77,1.18,1.18,0,0,1,.63-1c1.74-.7,3.52-1.31,5.29-1.95a20.77,20.77,0,0,0,.26,3.45C213,139.47,210.73,142.3,208.74,142.06Zm-3.2-1.08a17.43,17.43,0,0,1-2.1,2.86c-.87.82-2.25-.09-2.55-1.59-.2-1-.5-2-.62-3a1.5,1.5,0,0,1,.54-1c.19-.2.61-.17.92-.27l3-.94C204.94,138.17,205.19,139.36,205.54,141Zm-9.56-1.4c1.44-.47,2.54-.61,2.89,1.17.17.84.49,1.66.88,2.91a17.12,17.12,0,0,1-2.53,3.13c-.84.67-1.86.42-2.05-1a12.81,12.81,0,0,0-.87-3.39C193.56,140.72,194.43,140.08,196,139.58Zm-1.09,8.7c2.72.64,3.82-1.08,5-2.78.2-.29.87-.65,1.06-.55,2.17,1.18,3.32,0,4.39-1.52.47-.65.53-1.43,1.89-.48,1.71,1.2,3.28-.31,4.77-1.24a21.41,21.41,0,0,1,2.87-1.13c1.61-.67,3.2-1.4,4.82-2,.42-.16,1.22-.24,1.39,0,1.93,2.36,1.22,7-1.25,8.74-2.28,1.58-4.25.85-4.71-1.78-.13-.73,0-1.5-.17-2.22a10.33,10.33,0,0,0-.87-1.85c-.3.6-.6,1.19-.91,1.78l.64.16c-.25,1.8-.16,3.72-.87,5.35-.43,1-2.06,1.58-3.15,2.35a18.2,18.2,0,0,1-2.07-2.86,19,19,0,0,1-.6-2.89c-.11-.39-.58-.69-.88-1-.22.37-.61.74-.61,1.12a6.38,6.38,0,0,0,.32,2.38c.68,1.73-.13,2.75-1.54,3.76-2.4,1.71-3.88,1.3-4.76-1.36a9.9,9.9,0,0,0-1.36-2.08c0,.85-.11,1.7-.07,2.54,0,.49.48,1.11.29,1.42a29.32,29.32,0,0,1-2.2,2.82,18.89,18.89,0,0,1-1.28-2.21,14.19,14.19,0,0,1-1-3.14C194,149.14,194.7,148.24,194.89,148.28Zm-4.62-6.17a10.09,10.09,0,0,1,1.16-1.41c0,.54.11,1.08.09,1.62a8.81,8.81,0,0,1-.19,1.22,10.41,10.41,0,0,1,.94-.82.61.61,0,0,1,.53,0c.83.81.95,5,.13,6a6,6,0,0,1-1.19.89c-.33-.42-.87-.8-1-1.25-.32-1.64-.5-3.3-.73-4.94A4,4,0,0,1,190.27,142.11ZM190,161.73c-.55-2.52-1.1-5-1.54-7.59a16,16,0,0,1,0-2.77h-.26c.16-1.78.33-3.56.5-5.33a4.69,4.69,0,0,1,.17-.72,2.65,2.65,0,0,1,.26.78c0,1.43-.08,2.86,0,4.29a31.07,31.07,0,0,0,.32,3.47c.38,2.59.83,5.17,1.24,7.75a5.32,5.32,0,0,1,0,.69C190.46,162.11,190.08,162,190,161.73Zm.74-7.14c-.12-.41,0-.88-.19-1.28-.64-1.71-.06-2.79,1.92-2.62.52.05.91,1.32,1.16,1.71a7.31,7.31,0,0,1-.31,2.3,17.24,17.24,0,0,1-1.82,2.23C191.27,156.15,191,155.38,190.77,154.59Zm3.38,1.18c.32-.19,1.14.38,1.74.63-1.69-.05-1.48,1-1.49,2.11a22.06,22.06,0,0,1-.34,3.62,1.23,1.23,0,0,1-.9.77c-.31,0-.74-.43-.92-.76A4.59,4.59,0,0,1,194.15,155.77ZM190.66,178c-.43-.27-.41-1.16-.6-1.77.52.06,1.05.1,1.57.18,2.54.41,5.07.89,7.63,1.17.36,0,1.05-.79,1.24-1.33a17.52,17.52,0,0,1,12.44-11.73c5.19-1.45,10.36-3.16,15.68-4,3.2-.51,6.73.09,10,.75,4.49.9,9,2.43,13.41.42a39.75,39.75,0,0,1,14.29-3.62c4.95-.3,9.93-.13,14.33,2.27,5,2.72,9.06,6.15,8.23,12.34a13.7,13.7,0,0,0,.09,2c-.06,1.19-.08,2.93-.24,4.65a3.22,3.22,0,0,1-2.83,3.13c-4.44,1-8.86,1.65-13.35.35a14.14,14.14,0,0,1-2.06-1,14.15,14.15,0,0,1,2.1-.48c3-.24,6.09-.33,9.12-.64,3.46-.35,5.59-3.12,4.89-6.33a51.67,51.67,0,0,0-2.15-8.26,7.17,7.17,0,0,0-3.33-3.26c-5.87-3-12.2-2.33-18.49-1.58-1.71.21-3.41.5-5.12.7-2,.24-2.25,1.28-1.73,2.88,1.33,4.14,2.57,8.31,3.88,12.46.46,1.43.21,1.71-1.52,1.48a63.85,63.85,0,0,0-10.24-.69c-4.76.14-8.16,3.34-12,5.43-6.66,3.64-13.29,7.06-21.27,7.61-8.38.58-11.05-.64-14.91-7.77-.88-1.63-1.78-2.89-4.19-3.08C193.83,180.22,192.2,179,190.66,178Zm-13.44,15.44c-3.93-7.38-8.2-14.6-15.16-20-1.33-1-.94-2-.59-3.14.25-.83.38-1.7.63-2.54.06-.2.37-.39.62-.47,1.93-.67,2.24-1.57,1-3.07a6.1,6.1,0,0,1-.4-.59,2.91,2.91,0,0,1,.77,0c1.19.27,2.32.49,2.34-1.22,0-.15.33-.44.41-.42,3,1,2.76-1.68,3.5-2.9.58-1,.69-.72,1.59-.48,4.08,1,3.9,4.79,5.37,7.36,4.58,7.94,8.3,16.33,14.69,23.29a5.61,5.61,0,0,1,1,2.58,56.6,56.6,0,0,0,8.82,20.75c3.85,5.46,8.16,10.88,14.62,13.88,3.72,1.73,8,2.51,12.11,3.38a62.48,62.48,0,0,0,15.94,1.79,31.55,31.55,0,0,0,16.36-5.05c1.45-1,3.3-1.44,4.63-2.5,4.71-3.76,9.28-7.69,13.91-11.55.27-.22.57-.42.86-.64a3,3,0,0,1,.06,1.06,81.83,81.83,0,0,1-3.2,8.36c-5.44,10.88-14.57,18.15-26.46,22.27-3.57,1.24-7.65,1.21-11.49,1.77,0-.19,0-.39,0-.58a61.64,61.64,0,0,1-24.84-1.58,30,30,0,0,1-9.73-4.79,118.91,118.91,0,0,1-13.22-11.48c-1.9-1.91-3-4.65-4-7.16-2.23-5.29-4.72-10.56-6.1-16.06A44.39,44.39,0,0,0,177.22,193.45ZM148,182.52A48.13,48.13,0,0,0,163.45,196c2,1.11,4.06,2.09,6.08,3.15a6.16,6.16,0,0,1,.82.63c-.38,0-.75.09-1.13.1h-1.79c0-.22,0-.45,0-.67-7.29,0-14.58,0-21.87,0-1.46,0-2.92.42-4.36.31a22.36,22.36,0,0,1-5.13-1c-.53-.17-1.22-1.4-1-1.83,2.44-5.36,5.42-10.42,10-14.55C146.4,180.82,147.08,181.27,148,182.52Zm-22.12,9.08q-10.36-1.69-20.7-3.56a28.39,28.39,0,0,1-6.53-1.51c-3.17-1.4-4.31-4.05-4.34-8.34a22.52,22.52,0,0,1,4.83-13.7c2.2-2.93,5.82-4,9.28-5,6.94-2.08,12.51.88,17.86,4.46a27.77,27.77,0,0,0,2.63,1.67,3.62,3.62,0,0,0,1.45.08,5,5,0,0,0,0-1.5c-.31-1-1.11-2-1.1-3a95.86,95.86,0,0,1,.62-10.85c.3-2.34,2.19-3.89,4.41-5,1.62-.77,3.22-.58,3.83,1.05a26.71,26.71,0,0,1,2.08,7.65c.37,6.55.29,13.12,2.16,19.53a1.71,1.71,0,0,1-.72,1.41c-4.26,2.85-8.51,5.72-11.26,10-1.18,1.85-2.08,3.85-3.2,5.74C127,191.16,126.27,191.66,125.89,191.6Zm7.56,3.07c-.26.45-.55.88-.89,1.41a39.75,39.75,0,0,1-4.13-3.5c-.33-.37.13-1.51.44-2.2a28.19,28.19,0,0,1,12.39-13.12,3.66,3.66,0,0,1,2.39-.17c.4,1.08,2.09,2,.22,3.49C139,184.36,136.36,189.61,133.45,194.67Zm19.21,26.4c-11.2,1.23-22.62,2.18-32.77,7.54-2.71,1.43-5.25,3.13-7.88,4.68-.54.32-1.16.54-1.74.81a8.09,8.09,0,0,1,.87-1.74c.71-.88,1.6-1.64,2.34-2.51a6,6,0,0,0,.7-1.39,9.19,9.19,0,0,0-1.75.18,7.9,7.9,0,0,0-1.36.75c-.81.43-1.63.85-2.45,1.27.46-.8.85-1.64,1.39-2.4.66-.92,1.49-1.74,2.13-2.67.24-.35.16-.88.23-1.33a12.18,12.18,0,0,0-1.48,0c-.24,0-.45.25-.7.33-.42.13-.85.23-1.27.33a6,6,0,0,1,.49-1.09c1.17-1.57,2.41-3.1,3.55-4.68a3.84,3.84,0,0,0,.35-1.34,12,12,0,0,0-1.45-.14,4.27,4.27,0,0,0-1,.28l-2.22.64c.52-.66,1-1.37,1.57-2,.94-1,2-1.82,2.91-2.79a4.92,4.92,0,0,0,.66-1.45c-.54-.07-1.09-.14-1.63-.19s-.93,0-1.39-.08c.3-.38.59-.77.9-1.14,5.49-6.58,13.27-8.43,21.61-9.12l17.85-1.48L173,201.83a21,21,0,0,1,4.38.45,3.67,3.67,0,0,1,2.09,1.89c2,4.78,3.79,9.63,5.68,14.44.57,1.45,1.25,2.86,1.87,4.29a6.48,6.48,0,0,1,.17.63,2.51,2.51,0,0,1-.49-.25c-3.2-2.32-7.1-2.47-10.8-2.55C168.17,220.55,160.33,220.22,152.66,221.07ZM91.09,304c2.5,2.67,2.21,5.92,2.55,9,1,9.46,6,17.05,12.34,24.2a97.1,97.1,0,0,0,13.34,11.79,43.59,43.59,0,0,0,12,6.76c5.85,2.11,11.51,4.65,17.26,7a7.59,7.59,0,0,0,.69.36c.74.21,1.5.38,2.25.56a21.62,21.62,0,0,1-2,1.75c-7.82,5.34-15.78,10.48-24.84,13.88-2,.73-4.06,1.09-6.07,1.68-.92.27-1.78.68-2.53,1a21.29,21.29,0,0,1-12.64-6.69c-6-6.47-8.16-14.43-10.78-22.28-2.09-6.31-4.58-12.51-6.89-18.76a5.11,5.11,0,0,1-.48-1.56c-.06-3.34.08-6.69-.12-10A35,35,0,0,1,89,304.06C89.7,302.78,90,302.8,91.09,304Zm-11.8,45.63c-.69-2.19-1.49-4.36-2.15-6.56a5.44,5.44,0,0,1-.18-2.37,6.14,6.14,0,0,1,1-1.74c.39.46.79.91,1.18,1.38a32,32,0,0,0,3.07,3.6,3,3,0,0,0,2.46.47c.57-.19.79-1.24,1.43-2.37-1.37-2.73-2.77-5.55-4.18-8.37-.11-.21-.25-.41-.37-.62.29.05.72,0,.86.16,1,1.28,2.35,2.47,2.89,3.92,2.28,6.12,4.38,12.31,6.43,18.51,2.45,7.45,4.56,15,10.32,21.08,3.39,3.59,7.05,6.41,12.45,6.8,3.79.27,7.12-1,10.27-2.5,5.78-2.74,11.45-5.71,17-8.88,4-2.33,7.63-5.32,11.7-7.6,1.45-.81,3.71-.29,5.58-.54,4.33-.56,6.67,2.35,9.32,4.6a89.13,89.13,0,0,0,26,15.42c1,.38,1.93.83,2.87,1.28.67.33,1.29.72,1.94,1.09l-2.16-.08c-1.92-.05-3.84,0-5.76-.18-1-.07-1.93-.43-2.91-.58a1.63,1.63,0,0,0-1.18.2c-3.15,2.94-11.44,4.18-15,1.48-3.1-2.33-6.46-2.31-10.58-1-5.52,1.74-6.84,5.18-7.27,9.7-.14,1.48-.28,3-.44,4.44a6,6,0,0,1-.25,1,4.14,4.14,0,0,1-1-.48c-6.12-5.21-14-7.16-21.4-10-7-2.69-14.42-4.55-21.64-6.8-5.58-1.73-11.27-3.21-16.69-5.29A50.3,50.3,0,0,1,75.36,367c-2.86-2.85-5.16-6.19-7.71-9.31,0-.05-.06-.1-.1-.16-.59-.87-1.85-1.95-1.63-2.58.3-.88,1.92-1.29,2.61-2.15,2.23-2.8,4.31-5.72,6.44-8.59.26-.34.49-.71.73-1.06.16.38.35.75.48,1.14.67,1.88,1.29,3.77,2,5.62.14.37.7.59,1.06.88A4,4,0,0,0,79.29,349.58Zm4.92-7.48c-.07.26-.16.51-.28.9a5,5,0,0,1-.92-.7,60.63,60.63,0,0,1-3.64-5.44c-.26-.46.44-1.38.7-2.09a6,6,0,0,1,1.55,1.1c.62.85,1.74,2.19,1.43,2.69C82,340.33,84.55,340.77,84.21,342.1ZM71,274.57c1-1.18,2.19-.84,3,.15a53.2,53.2,0,0,1,4.76,6.12c2.65,4.27,5.08,8.65,7.46,13.05a2.32,2.32,0,0,1-.62,2.16c-7.58,7-10.94,15.41-9.63,25.36a15.69,15.69,0,0,0,.36,3.31,9.07,9.07,0,0,0,1.79,2.3c-.15-2.33-.32-4.66-.43-7-.31-6.08.16-12,4.31-17.11.95-1.17,1.57-2.59,2.63-3.66.62-.62,1.81-.77,2.74-1.13.38,1.26,1.47,2.83,1,3.74-2.94,5.91-5,12-4.94,18.54,0,3.24.41,6.48.61,9.71,0,.13-.39.42-.46.38-1.91-.93-3.8-1.9-5.7-2.86-1.75-.06-4-2.13-4.49-4.49-.75-3.83-1.12-7.73-2-11.54a6.9,6.9,0,0,0-2.38-3.4c-1.54-1.29-2.75-.95-3.22.91-1,4.23-1,8.36,2.44,11.84.77.76,1.52,1.55,2.23,2.37a5.16,5.16,0,0,1,.58,1.09,3.92,3.92,0,0,1-1.15-.42c-1.53-1.19-2.92-2.55-4.54-3.61A10.41,10.41,0,0,0,61.79,319c-.42-.09-1,.66-1.56,1a4.83,4.83,0,0,1,1.34.16A14.73,14.73,0,0,1,65.14,322c3.08,2.6,6,5.34,9,8.07.28.27.24.88.28,1.33.25,2.52.49,5,.71,7.55a2.76,2.76,0,0,1,0,1.43c-2.24,4.27-4.16,8.72-8.21,11.94-2.57,2-5.43,3.53-8.78,3.42a8,8,0,0,1-4.74-1.9c-4.32-3.95-6.62-8.71-5.93-14.54.64-5.47.48-11.08,1.71-16.42a166.56,166.56,0,0,1,6.7-21.72,154.17,154.17,0,0,1,8.62-18.32C66.09,279.84,68.72,277.28,71,274.57Zm.56,46.78a1.54,1.54,0,0,1-.47-.18c-2.54-2.37-4.64-4.93-4.74-8.69.52-1,1-2.08,1.57-3.11.79,1.07,2,2.06,2.29,3.25.68,2.68.9,5.46,1.31,8.2C71.52,321,71.53,321.17,71.54,321.35Zm-22.1-20.24c3.42-6.55,6.44-13.28,10.1-19.7,1.44-2.53,4.12-4.43,6.25-6.61a1.29,1.29,0,0,1,.67-.38c.69-.11,1.4-.17,2.1-.25-.33.44-.67.88-1,1.32-7.26,10-11.69,21.14-15.87,32.44a98.68,98.68,0,0,0-5.84,33.89c0,6.29,2.77,11.33,8.36,14.95a4,4,0,0,1,.62.61,3.74,3.74,0,0,1-1.15,0,10.63,10.63,0,0,1-6.75-5.93c-3-6.22-5.49-12.61-5.24-18.76A67.2,67.2,0,0,1,49.44,301.11Zm99.38,138.38c-2.89,2.67-5.09,6-9.33,7.22-3.88,1.08-7.68,2.24-11.87,1.54-3.78-.62-7.73-.48-11.39-1.42a42.84,42.84,0,0,1-10.3-4.27c-6.55-3.72-13.23-7.39-19.18-11.86A70.91,70.91,0,0,1,74,418c-8.19-10.31-16.51-20.48-27.74-28.09-6.19-4.2-12.8-7.84-19.28-11.65C18,373,10,366.77,6.6,356.85a18.05,18.05,0,0,1,.61-13.14c.91-2.23,1.2-4.68,2.16-6.89,1.51-3.48,4.4-5.58,8.39-6.43,2-.42,3.89-1.24,5.88-1.71,3.81-.9,6.38,1.63,9.2,3.21a29.69,29.69,0,0,1,6.46,4.67c.86.86.62,2.68.88,4.07-.46,0-.92.05-1.39.06-2,0-4-.09-6,.11-.5.05-.89,1.06-1.34,1.63a6.1,6.1,0,0,0,1.84-.17,6.69,6.69,0,0,1,8.33,3.18c1.61,3.63,3.54,7.14,5.19,10.75a1.92,1.92,0,0,1-.73,1.8,17.49,17.49,0,0,1-5,1.25c-3.25.19-6.51.05-9.77.05v.31c-3.12,0-6.24-.07-9.36,0-.76,0-1.5.71-2.25,1.08a13.55,13.55,0,0,0,1.37,1.55c2.48,2,5,4,7.51,6.08,3.92,3.23,7.78,6.53,11.71,9.74.34.28,1.05.18,1.58.25-.25-.5-.36-1.14-.77-1.47-4.7-3.92-9.47-7.77-14.16-11.69-1.32-1.1-2.46-2.38-3.68-3.58,1.73-.22,3.45-.56,5.18-.63,4.64-.2,9.29-.17,13.93-.48a10.33,10.33,0,0,0,4.8-1.52c1.34-.89,2.24-.59,3.57-.26a11.48,11.48,0,0,0,4.77.23,21.11,21.11,0,0,0,5.62-2.08,2.12,2.12,0,0,1,3,.63c1.84,2.18,3.62,4.42,5.42,6.63,6.84,8.4,15.76,14.28,26.19,18.08,5.91,2.15,12.09,3.67,18.13,5.5,5.72,1.74,11.53,3.27,17.13,5.33s11.15,4.59,16.62,7.1c1.79.82,3.48,2,3.46,4.33a4.24,4.24,0,0,0,1.11,2.34,9.36,9.36,0,0,1,1.87,7.38c-1.26,10.53-6,19.18-15.28,25.6-4.71,3.24-10,2.94-15,2.26a71.42,71.42,0,0,1-22.56-6.95c-8.21-4.12-14.79-10-20.66-16.58C74,411.09,67.76,403.41,61,396.09c-4.43-4.82-9.35-9.25-15.51-12.31C38,380,30.39,376.34,23.15,372.12A29.08,29.08,0,0,1,12,360.74c-2-3.84-3.76-7.77-4.15-12.12,0-.41-.64-.79-1-1.18a4.41,4.41,0,0,0-.29,1.31c1,10.81,6.54,19.3,16.13,25.23a176.48,176.48,0,0,0,17.73,9.15c10.92,5.14,18.92,13.13,26.11,22.1A168.85,168.85,0,0,0,92.17,431.6c6,4.8,13.14,7.88,20.74,9.91,3.89,1,7.78,2.39,11.75,2.71,4.16.33,8.69.32,12.54-.93,3.13-1,5.65-3.92,8.14-6.28,5.78-5.48,8.73-12.29,10-19.79.08-.42.2-.84.3-1.26a7.22,7.22,0,0,1,.58,1.27C158.49,426,155.55,433.28,148.82,439.49Zm45,12.56c-7.74,8.71-17.63,5-23.06-1.43-4.41-5.24-6.72-11.33-8.5-17.65-.55-2-.45-4.37-1.67-5.81-1.45-1.73-1.2-3.33-.76-5.21-1-4.26-2.1-8.51-3.14-12.77a35.72,35.72,0,0,1-.22-15.67,4.88,4.88,0,0,1,.27-1.08c.47-.93,1-1.84,1.5-2.76a8.7,8.7,0,0,0-.62,2.47c.17,3.39,0,6.87.83,10.13,2.53,10.23,5.22,20.43,8.29,30.53a52.65,52.65,0,0,0,9.49,17.67c4.09,5.09,10.82,6,16.28,2.12.36-.26.74-.52,1.13-.76a2.36,2.36,0,0,1,.49-.18A4.24,4.24,0,0,1,193.81,452.05Zm2.47-33.38c1.5-.43,5.55,2.55,5.55,3.95.07,1.67-1.08,1.4-2,1.21-1.26-.24-3.8-3.4-3.83-4.67A.59.59,0,0,1,196.28,418.67Zm1.76,9.44c.46,3.23,1.2,6.43,1.78,9.65a4.15,4.15,0,0,1-.16,1.24,12.37,12.37,0,0,0-1.11-.65c-1.91-.91-3.81-1.87-5.78-2.66-.39-.16-1.08.32-1.64.51a7,7,0,0,0,1.35,1c1.2.5,2.54.73,3.67,1.33,3.69,1.94,4.38,5.42,1.24,8.12a53.34,53.34,0,0,1-9,6c-2.49,1.37-7.95-.16-10.12-3.08a61.72,61.72,0,0,1-7.49-12.17,176.79,176.79,0,0,1-7.47-21.29c-1.91-6.8-3-13.8-4.4-20.61a26.44,26.44,0,0,1,1.11-4.5c2-4.67,6.15-5.74,10.58-2.82a10.5,10.5,0,0,0,7.44,2c1.16-.17,1.74.12,1.91,1.41,1,7.39,4.23,14,8.43,20.22.4.6.26,1.48.52,2.19.12.32.57.55.91.78a7.6,7.6,0,0,0,.94.49,2.84,2.84,0,0,1-1,.36c-1.16-.08-2.3-.29-3.46-.38a48.23,48.23,0,0,0-7.47-.44c-2.69.22-2.25,2.6-2.32,4.27a2.46,2.46,0,0,0,3,2.58,45.74,45.74,0,0,0,6.66-2.07c.64-.21,1.26-.46,1.88-.69a6.26,6.26,0,0,1,0,2.52,42.24,42.24,0,0,1-2.54,4.41,4.73,4.73,0,0,0-.68,1.12,9.46,9.46,0,0,0-.11,1.77,6.73,6.73,0,0,0,1.32-1.15c.91-1.36,1.73-2.78,2.57-4.18.58-1,.9-1.26,1.9-.12a25.42,25.42,0,0,0,4.48,3.56c.27.2.84,0,1.28,0a4.33,4.33,0,0,0-.59-1.2c-1.41-1.45-2.88-2.86-4.31-4.3-.15-.15-.15-.42-.23-.64a2.55,2.55,0,0,1,.71.15C194.72,422.69,197.53,424.46,198,428.11ZM186,417.5a12.73,12.73,0,0,1-3.13,2.08,8.56,8.56,0,0,1-3.9,0c-.3-.06-.57-1.46-.4-2.15.1-.43,1-.81,1.62-1a7.6,7.6,0,0,1,2,0l.23-.5Zm8.78,3a2.05,2.05,0,0,1-.06.49,2.22,2.22,0,0,1-.55-.12c-1.49-.86-3-1.72-4.44-2.6-.15-.08-.23-.27-.34-.41l1.27-.42C192.76,417.47,194.58,419,194.77,420.52Zm.23-8.4c-3.55.63-4,.56-5.94-2.23a56.72,56.72,0,0,1-7.27-15.58,5.62,5.62,0,0,1-.16-1.35,4.63,4.63,0,0,1,4.8-4.37c.4,0,.93.89,1,1.43a65.37,65.37,0,0,0,5.89,17.24,25.39,25.39,0,0,0,2.32,3.45C196.35,411.62,196.17,411.91,195,412.12Zm51-47.18c1.58,7.12,1.79,14.17,2.66,20.5-.52,4.3-.21,7.95-1.13,11.14a7.39,7.39,0,0,1-3.89,4.12c-4.21,1.75-8.69,2.95-13.08,4.31a50.94,50.94,0,0,1-5.18,1.3c-8.55,1.69-17.11,3.37-25.69,4.94a3,3,0,0,1-2.22-1c-4-4.68-5.74-10.27-7.37-15.89a32.66,32.66,0,0,1-.8-5.12,2.14,2.14,0,0,1,.44-1.29c.08-.12.6,0,.92,0-.15.41-.33.82-.44,1.24a3.55,3.55,0,0,0,0,.8,2.43,2.43,0,0,0,.89-.21,8.91,8.91,0,0,1,7.69-1.77c1,.22,2.27-.55,3.37-.45a22.6,22.6,0,0,1,4.14,1.1,7.37,7.37,0,0,0,1.46.53,4.79,4.79,0,0,0,1.5-.43c-.29-.5-.44-1.28-.88-1.45-5.62-2.19-11.35-4.14-16.91-6.45-9.08-3.77-17.52-8.47-24.14-15.59a4.3,4.3,0,0,1-.51-.89c.45-.09.89-.21,1.34-.26,9.86-1.19,19.73-2.33,29.58-3.58,7.89-1,15.86-1.86,23.24-4.83a150.22,150.22,0,0,0,14.37-7c1.26-.67,1.73-.65,2.72.28C242.74,353.44,244.68,359.19,246,364.94Zm67.48-148.4c-4.69,1.85-9.66,3.23-14.06,5.54-6.72,3.54-12.57,8-16.6,14.53-7.25,11.67-10.55,24.44-13.21,37.48-.67,3.32-2.14,6.49-2.95,9.79-2.39,9.7-4.43,19.47-7,29.11a56.76,56.76,0,0,1-5,11.63c-4.42,8.31-10.87,15.31-18.2,21.39-8.27,6.84-18.59,10.05-29.39,11.74-10.07,1.57-20.18,3-30.29,4.37-2.75.38-5.56.33-9.08.51-5.77.11-12.33.32-18.53-1.8-5.58-1.9-10.9-4.46-16.45-6.46-8.06-2.9-14.57-8-20.49-13.46-5.5-5.11-10.68-10.7-13.88-17.52-3.1-6.63-3.87-13.6-3.49-20.71.21-4,.61-8,1.15-12,.78-5.8,3.44-11,6.35-16.08a80.57,80.57,0,0,1,21.44-24c5-3.84,10.92-6.68,16.4-10,3-1.82,5.91-3.77,8.92-5.56,2-1.16,4-2.15,6.08-3.15a4.49,4.49,0,0,1,1.49-.12c.34,0,.89,0,1-.12,1.25-2.33,3.58-2.77,6-3.11.25,0,.67-.27.67-.42a5.45,5.45,0,0,0-.25-1.6,1.76,1.76,0,0,0-.88.06c-1.62.7-3.19,1.5-4.85,2.13a1.59,1.59,0,0,1-1.38-.53,42.8,42.8,0,0,1-2.22-4.76c-.1-.25.44-1.05.71-1.06,9-.47,18.11-.87,27,.84,2.78.54,5.22,3.13,7.56,5,4.33,3.55,8.46,7.31,12.69,11,5.16,4.46,11.68,5.7,18.28,7.06,8.67,1.79,17.19,0,25.77-.2,5.17-.12,9.39-3.13,13.78-5.41,10.57-5.5,16.76-14.19,20.5-24.58.76-2.09.52-4.47,1-6.69.22-1.16.15-2.64,2.5-2.42a14,14,0,0,0,5.18-1c5.83-1.83,11.6-3.8,17.43-5.64a2.09,2.09,0,0,1,1.81.52c2.84,4.51,5,9.28,5.38,14.59A1.5,1.5,0,0,1,313.44,216.54Zm6.75-1.31c-3.77.73-3.55.62-4.71-2.7a131,131,0,0,0-5.06-12.22c-.69-1.49-.36-2.31,1-2.67,1-.27,2.86-.37,3.2.13,3.34,4.91,6.36,10,7,16.49C321.32,214.49,320.81,215.11,320.19,215.23ZM364,199.16a19.29,19.29,0,0,1-8.21,12.74c-2.25,1.58-5.65,1.95-8.61,2.37a58.1,58.1,0,0,1-8.14.08c0,.11,0,.22,0,.33-4.84,0-9.68,0-14.52,0-.4,0-1.13-.48-1.15-.76-.43-6.82-4-12.49-7.71-18.07-.63-.94-.52-1.29.2-2.11,3.18-3.57,6.08-7.35,9.33-10.85a31.07,31.07,0,0,1,6.41-5.33,2.46,2.46,0,0,1,3.82,2.55,22.13,22.13,0,0,1-1.82,6.19c-1.43,3.05-3.25,5.94-4.84,8.94-.23.44-.06,1.07-.08,1.61a7,7,0,0,0,1.09-1c5.39-7.24,9.8-9.32,19.17-8.67a47.66,47.66,0,0,1,7.47.93C362.6,189.52,365,193.29,364,199.16Z" transform="translate(-4.81 -6.83)"/><path d="M249,150.47c-.77-.3-1.56-.59-2.31-.93-.52-.23-1-.54-1.49-.81l-.87,1.65a8.61,8.61,0,0,0,1.73.31c1,0,1.94-.16,2.92-.25s1.7.05,2.55,0a7.9,7.9,0,0,0,1.25-.25,6.35,6.35,0,0,0-1.07-1.23c-.2-.14-.77,0-1.07.23C250,149.58,249.52,150.05,249,150.47Z" transform="translate(-4.81 -6.83)"/><path d="M233.19,152.41c1.45-.2,2.76-.35,4.05-.58a9.14,9.14,0,0,0,1.56-.57c-.28-.4-.48-1-.88-1.15s-.83.34-1.27.48c-1.1.35-2.21.68-3.33,1a6.73,6.73,0,0,1-1,0s-.1.45,0,.48A5.77,5.77,0,0,0,233.19,152.41Z" transform="translate(-4.81 -6.83)"/><path d="M78.1,329.33l-.9.93a9.4,9.4,0,0,0,1.85,1.44c.22.11.84-.5,1.27-.78Z" transform="translate(-4.81 -6.83)"/><path d="M75.75,335.57l.62,2.08a6.32,6.32,0,0,0,.81-1.94c0-.5-.5-1-.78-1.54Z" transform="translate(-4.81 -6.83)"/><path d="M211.61,158.16a9.77,9.77,0,0,0-.87-.88,24.36,24.36,0,0,0-2,1.51s.18.36.19.36C209.77,158.85,210.6,158.54,211.61,158.16Z" transform="translate(-4.81 -6.83)"/><path d="M220.73,155.2l-1.68-1.28a14.18,14.18,0,0,0-.61,1.6c0,.13.37.52.46.49C219.48,155.81,220,155.52,220.73,155.2Z" transform="translate(-4.81 -6.83)"/><path d="M258,151a3.74,3.74,0,0,0,1-.78c.07-.11-.4-.53-.62-.81l-1.35,1Z" transform="translate(-4.81 -6.83)"/><path d="M173.18,321.87c2.25.05,3.26,1.51,2.48,3.32-.87,2-7.08,6.06-9.44,5.9-.52,0-1.52-1.27-1.38-1.54,1.66-3.22,3.82-6.08,7.56-7.5A3.87,3.87,0,0,1,173.18,321.87Zm-6.28,7.76.76.39c2.23-1.64,4.47-3.27,6.65-5,.05,0-.71-1.23-.84-1.19-2.81.88-5.32,2.2-6.74,4.78C166.6,328.89,166.84,329.3,166.9,329.63Z" transform="translate(-4.81 -6.83)"/><path d="M201,303.82c-.18,3.18-5.19,9.17-7.73,9.83-1.81.47-3-.45-2.21-2a69.9,69.9,0,0,1,5.59-8.84c.47-.64,2.18-.84,3.2-.65C200.42,302.28,200.79,303.54,201,303.82Zm-1.17.73c-.13-.22-.34-1-.69-1.06a2.16,2.16,0,0,0-1.76.52c-1.7,2.52-3.26,5.12-4.81,7.72,0,.07.7.78,1,.72C195,312.18,199.68,306.41,199.8,304.55Z" transform="translate(-4.81 -6.83)"/><path d="M222.17,264.25c-.17-.5-.87-1.52-.59-1.88,2-2.53,4.11-5,6.33-7.33a2.5,2.5,0,0,1,2.18-.44,3.56,3.56,0,0,1,1.39,2.4C231.48,259.39,225.54,264.27,222.17,264.25Zm1.31-1.2c1.91-.1,6.56-4.06,6.7-5.65a2.62,2.62,0,0,0-.47-1.34,1,1,0,0,0-.77.09q-2.94,2.75-5.81,5.56a1.29,1.29,0,0,0-.26,1C222.89,262.88,223.36,263,223.48,263.05Z" transform="translate(-4.81 -6.83)"/><path d="M217.1,280.25a52.41,52.41,0,0,1-3.88,6.5c-.53.68-2.24.55-3.42.79-.14-1-.69-2.08-.36-2.87a28.87,28.87,0,0,1,3.1-5.55,2.76,2.76,0,0,1,2.32-.86C215.61,278.44,216.16,279.37,217.1,280.25Zm-6.49,5.06c.1.22.3.93.42.92.62-.06,1.54-.13,1.77-.51a36.52,36.52,0,0,0,2.22-4.53c0-.07-.79-.68-1-.59A5.84,5.84,0,0,0,210.61,285.31Z" transform="translate(-4.81 -6.83)"/><path d="M125.07,435.75a48.71,48.71,0,0,1-5.52-2.56c-3.29-2.05-6.4-4.36-9.65-6.49-4.29-2.81-3.62-5.71-1-9.16,3-3.92,6.62-7.39,10-11,1.13-1.21,2.33-2.37,3.56-3.48,2.41-2.19,4.36-2.26,7.46-1a60,60,0,0,1,15,8.94c2.63,2.06,3.24,5,1.28,7.64a43,43,0,0,1-3.64,3.9c-3,3.09-6.14,6-8.78,9.3C131.51,434.58,128.67,435.3,125.07,435.75Zm20.86-20.42a33.29,33.29,0,0,0-2.89-3.45,39,39,0,0,0-13.57-8.2c-2.5-.89-4.58-.77-6.36,1.07q-6.61,6.81-13.15,13.67c-2,2.1-2.19,4.63.11,6.32a145.56,145.56,0,0,0,12.79,8.36c2.51,1.45,6.38.52,8.46-1.54,4.09-4.05,8.18-8.11,12.16-12.26A22.7,22.7,0,0,0,145.93,415.33Z" transform="translate(-4.81 -6.83)"/><path d="M52.75,381.07a13.7,13.7,0,0,1,1.36-2.59c2.68-3.36,5.55-6.6,8.16-10,2-2.57,2.74-2.9,5.32-.9q5.4,4.19,10.54,8.64c2.38,2.06,2.36,4.46.2,6.93-2.55,2.91-5,5.88-7.73,8.67-1.29,1.34-3.16,2.12-5,.81-4.11-3-8.13-6.11-12.11-9.27C53.05,383,53.06,382,52.75,381.07Zm13.9,10.41a8.14,8.14,0,0,0,2.48-1.1c2.78-3,5.46-6,8.13-9.1,1-1.18,1.26-2.52-.07-3.65-3.27-2.79-6.6-5.49-9.88-8.26-1.57-1.33-2.51-.74-3.59.67-2.31,3-4.67,6-7.25,8.81-2.35,2.55-2.23,3.11.39,5.53,2.08,1.94,5.16,2.62,6.72,5.19C64.12,390.45,65.58,390.84,66.65,391.48Z" transform="translate(-4.81 -6.83)"/><path d="M96.62,387.25c4.24.69,6.58,3.3,9.35,5.19a12,12,0,0,1,3.42,3.41c1.11,1.82.31,3.51-1.78,4.18a90.88,90.88,0,0,1-9.34,2.44c-4.91,1-9.86,1.85-14.78,2.79a7.76,7.76,0,0,0-1.53.64,5.57,5.57,0,0,0,.87,1.41c4,3.46,8.15,6.88,12.24,10.31.35.29.83.48,1.05.83a3.79,3.79,0,0,1,.27,1.28c-.46-.05-1.07.06-1.37-.17-1.32-1-2.54-2.18-3.82-3.25-2.93-2.42-6-4.73-8.75-7.29a23.6,23.6,0,0,1-3-4.16A31.28,31.28,0,0,1,84,403.25c6.62-1.31,13.26-2.45,19.88-3.74a11.14,11.14,0,0,0,3.28-1.28c1.17-.67,1.41-1.75.27-2.61a87.53,87.53,0,0,0-8.41-5.9c-.84-.49-2.49.24-3.77.43-.58.08-1.17.2-1.75.31.15-.54.11-1.27.48-1.57A20,20,0,0,1,96.62,387.25Z" transform="translate(-4.81 -6.83)"/><path d="M220.53,207.29c.54-1.68.59-3.23,2.52-3a2.59,2.59,0,0,1,1.77,1.83c0,1.37-.7,2.77-2.51,2.7C221.7,208.76,221.12,207.81,220.53,207.29Z" transform="translate(-4.81 -6.83)"/><path d="M219.25,201.69a19.42,19.42,0,0,1-3.52,2.24c-.26.1-1.46-1.05-1.61-1.74-.29-1.26,1.53-3,2.75-2.67C217.6,199.72,218.11,200.61,219.25,201.69Z" transform="translate(-4.81 -6.83)"/><path d="M234.43,211.23c-1.21,1-1.93,2-2.57,2-1-.07-2-.88-2.94-1.37a16.91,16.91,0,0,1,3-2.31C232.24,209.39,233.22,210.4,234.43,211.23Z" transform="translate(-4.81 -6.83)"/><path d="M243.66,212.77c-1.43.95-2.23,1.89-3,1.9s-1.43-1-2.15-1.59a11.15,11.15,0,0,1,2.56-2C241.41,210.88,242.34,211.87,243.66,212.77Z" transform="translate(-4.81 -6.83)"/><path d="M252.73,211.57c0,1.87-.59,2.89-2.11,2.58-.77-.16-1.37-1-2-1.54a13.93,13.93,0,0,1,2.64-2.06C251.53,210.41,252.42,211.35,252.73,211.57Z" transform="translate(-4.81 -6.83)"/><path d="M264.81,209.24c-1.5.91-2.32,1.73-3.25,1.85-.57.07-1.29-.93-1.95-1.45a12.66,12.66,0,0,1,2.58-2.08C262.52,207.4,263.45,208.33,264.81,209.24Z" transform="translate(-4.81 -6.83)"/><path d="M277.42,198.15a18.06,18.06,0,0,1-3.35,2c-.27.08-1.31-.93-1.38-1.51a1.7,1.7,0,0,1,2.06-2.06C275.44,196.64,276.05,197.3,277.42,198.15Z" transform="translate(-4.81 -6.83)"/><path d="M268.32,207.17c-.8-1.25-1.53-2.11-1.41-2.24a12.09,12.09,0,0,1,2.78-2.08c.19-.11,1.39.94,1.35,1C270.36,204.81,269.57,205.7,268.32,207.17Z" transform="translate(-4.81 -6.83)"/><path d="M67.11,324.88c.27.35.89.81.87,1.24-.13,3,1.69,4.74,4.21,6.14.47.26.69.92,1,1.4a6.39,6.39,0,0,1-1.92-.08c-3.17-1.17-4.52-3.78-5.68-6.5C65.15,326,65.31,325.13,67.11,324.88Z" transform="translate(-4.81 -6.83)"/><path d="M60.82,331.21l.69-.83a5.13,5.13,0,0,1,1.05.9c1.5,2.21,3,4.46,4.46,6.66.22.32.82.74,1.07.66,1.38-.48,1.28.51,1,1a2,2,0,0,1-1.69.69C65.72,339.91,60.85,333.24,60.82,331.21Z" transform="translate(-4.81 -6.83)"/><path d="M64.36,327.52a9.3,9.3,0,0,1,.79,1.31c1.22,3,2.79,5.71,5.81,7.48.23.13.33.45.49.68-.28.16-.59.47-.82.43-.62-.1-1.45-.2-1.75-.6q-2.8-3.65-5.36-7.45c-.28-.42,0-1.16.07-1.76Z" transform="translate(-4.81 -6.83)"/><path d="M65.72,344.26a30.4,30.4,0,0,1-4.31-3.11A16.35,16.35,0,0,1,58.83,337c-.18-.36.29-1,.46-1.54.41.3,1,.53,1.18.92,1.4,2.84,2.92,5.55,6.44,6.58.18.05.28.33.42.5Z" transform="translate(-4.81 -6.83)"/><path d="M189,428.55l-1.42-.77c.5-.36,1.07-1.09,1.5-1,2.27.32,4.76.43,6.65,1.46,1.18.65,1.45,2.78,2.06,4.26a2.39,2.39,0,0,1-.91.51c-2.18-2-4.72-.77-7.13-.75a9,9,0,0,1-1.52-.21c.32-.41.58-1.12,1-1.2,1.54-.28,3.12-.34,4.68-.52a5.8,5.8,0,0,0,1-.33c-.24-.24-.45-.62-.74-.69-1.65-.42-3.33-.77-5-1.14Z" transform="translate(-4.81 -6.83)"/><path d="M191.47,432.33c2.31.83,4.55,1.52,6.66,2.47.63.28.92,1.25,1.27,1.94.09.18-.18.51-.28.77-.23-.09-.52-.11-.67-.27-1.9-1.95-4.4-2.47-7.06-2.76-.53-.06-1-.65-1.49-1Z" transform="translate(-4.81 -6.83)"/><path d="M232.53,162.68c3.61,0,5.66,1.94,5.35,5.33-.28,3.08-1.23,6.17-1,9.2.18,2.85-1.11,3.92-3.43,5.32-6.67,4-14.19,5.08-21.74,6.12-4.84.66-8-2.09-7.75-6.68.13-2.44,1.08-4.84,1.29-7.29.46-5.32,5.08-6.83,9.12-8.57A46.63,46.63,0,0,1,232.53,162.68Zm-2.67,1.45-.13.55c-5.19-.35-10.06,1-14.66,2.9-2.64,1.08-6.23,1.42-7,5.09-.63,3-2.08,5.83-2.4,8.81-.43,3.93,2.15,6.11,6.34,5.59,7.57-.94,15.09-2.21,21.57-6.38a3.6,3.6,0,0,0,1.39-2.18,83.36,83.36,0,0,0,1.06-9c.06-1.31-.12-3.2-1-3.84C233.67,164.69,231.61,164.59,229.86,164.13Z" transform="translate(-4.81 -6.83)"/><path d="M248,186.81c-.2-.76-.83-1.83-.51-2.23a32.32,32.32,0,0,1,4.26-4.17c.3-.25,1.16.07,1.76.12-.35.41-.62,1-1.08,1.19a5.55,5.55,0,0,0-3.52,4.15,4.28,4.28,0,0,1-.4.91Z" transform="translate(-4.81 -6.83)"/><path d="M260.14,185.58c-.1-.41-.29-.77-.19-.86,1-1,2.06-1.94,3.16-2.83.17-.13.69.13,1.05.21a4.22,4.22,0,0,1-.6.79c-.87.71-1.79,1.37-2.69,2.06C260.68,185.1,260.51,185.26,260.14,185.58Z" transform="translate(-4.81 -6.83)"/><path d="M262.61,173.38c-.25-.35-1-.92-1.08-1.56-.25-1.65,1.5-3.83,3-3.51a4.69,4.69,0,0,1,2.9,2.21C267.94,171.64,265.32,173.31,262.61,173.38Z" transform="translate(-4.81 -6.83)"/><path d="M225.65,176.62a7.79,7.79,0,0,1-1.48-2.68c-.23-1.59,1.62-3.22,3.13-3.21a3,3,0,0,1,3,3C230.34,175,228.1,176.68,225.65,176.62Z" transform="translate(-4.81 -6.83)"/></svg>