<svg xmlns="http://www.w3.org/2000/svg" viewBox="0 0 297.36 339.16"><title>Asset 2</title><g id="Layer_2" data-name="Layer 2"><g id="Layer_1-2" data-name="Layer 1"><path d="M.84.05,0,1.2C0,.62-.26-.22.84.05Z"/><path d="M296.46,197.66c-.31-4.11-.38-8.26-1-12.32a114.77,114.77,0,0,0-3-14.75,29.51,29.51,0,0,0-8.13-13.47,23,23,0,0,0-12.53-6c-1.9-.29-3.8-.6-5.7-.83a15.64,15.64,0,0,0-7.51,1.34,30.56,30.56,0,0,0-9.44,5.74,22.82,22.82,0,0,0-4.08,5.15,71.43,71.43,0,0,0-4.68,8.92,17.61,17.61,0,0,0-.4,11.58c1,3.92,2.06,7.86,3.42,11.65a42.34,42.34,0,0,0,3.44,6.34c1.91,3.35,5.27,4.77,8.19,6.77a13.33,13.33,0,0,1,1.3.8c2.58,2.16,5.66,2.37,8.73,2.25,8.28-.32,16.33-7.88,18.21-15.91a30.67,30.67,0,0,0-1.06-18.62c-2.07-5.29-6-8-10.88-9.69-4.36-1.48-8.38-.59-12,2.24-.74.57-1.45,1.17-2.23,1.68-3,2-4.27,5.11-5.06,8.54-.08.33-.09.67-.2,1a17.38,17.38,0,0,0,.38,11.69,10.14,10.14,0,0,0,2.08,3.63,15.62,15.62,0,0,0,8,4.55c2.55.55,4.62-.72,6.65-2.06.65-.43,1.22-1,1.89-1.41,2.2-1.25,3-3.46,3.41-5.79a10.45,10.45,0,0,0-2.59-9.68c-.93-1-1.93-1.88-2.9-2.8a1.77,1.77,0,0,0-.46-.31c-1.12-.52-2.3-1-3.37,0s-.65,2.13-.23,3.07a17.05,17.05,0,0,0,2.34,3.65c1,1.23,1.94,2.35,1.67,4.17a2.87,2.87,0,0,1-2,2.6c-4.36,1.39-10.09-1.38-9.64-7.45.37-5,1.82-7.09,6.6-8.27,4.62-1.14,8,1,10.9,4.56,2.71,3.34,2.05,7,1.34,10.65s-3.13,6.19-6.2,8c-.6.35-1.23.63-1.81,1-3.38,2.26-6.76,1.67-10-.17a23.89,23.89,0,0,1-4.63-3.54c-2.1-2-2.4-5-3.11-7.7-1-3.83.34-7.41,1.15-11a12.36,12.36,0,0,1,4.66-7.39,29.34,29.34,0,0,1,6.75-4.32,13.72,13.72,0,0,1,10,.13,16.93,16.93,0,0,1,8.89,6.66,24.94,24.94,0,0,1,3.43,9.32,34.66,34.66,0,0,1-.53,13,20.5,20.5,0,0,1-1.68,4.38,23.42,23.42,0,0,1-9.87,10.62A18.82,18.82,0,0,1,260.17,212a9.52,9.52,0,0,1-3.31-1.31c-2.52-1.54-5-3.24-7.45-4.85a30.69,30.69,0,0,0-3.22-1.88,10.44,10.44,0,0,1-4-3.62c-3.53-5-5.38-10.76-7.33-16.49a17.17,17.17,0,0,1-.54-3.82c0-.42-.06-1,.17-1.26,1.42-1.48.3-2.64-.54-3.54-1.22-1.32-1-2.91-1.23-4.43-.1-.8.54-.78,1-.71.83.11,1-.35.79-1a9,9,0,0,0-1.36-2.76c-1.13-1.25-1-2.84-1.32-4.28,0-.09.61-.56.83-.49,1.07.33,1-.29.57-.83a19.46,19.46,0,0,0-3.08-3.94,9,9,0,0,1-2.81-4.79c-.32-1.13-.15-1.3.92-1.17,0,0,.09,0,.13,0l1.95-.33a7.22,7.22,0,0,0-1.42-1.73c-1.84-1.14-3.78-2.11-5.66-3.18a4.29,4.29,0,0,1-2-3.73c-.06-.86.32-1.07,1-.69s1.14.81,1.72,1.18a4.19,4.19,0,0,0,.86.31c-.12-.32-.17-.76-.39-.95a46.14,46.14,0,0,0-4.12-3.3,5.45,5.45,0,0,1-2.57-3.86c-.15-.88-.06-1.54,1-1.56a3.21,3.21,0,0,0,.85-.3c-.18-.36-.28-.84-.56-1.06-1.83-1.44-3.65-2.87-5.55-4.2a4.1,4.1,0,0,1-2-2.92c-.11-.92.17-1.1,1-.82a14,14,0,0,0,1.59.31c-.37-.45-.72-.93-1.12-1.35-1.31-1.37-2.77-2.12-4.7-1.49a2.13,2.13,0,0,1-1.54-.38,1.42,1.42,0,0,1-.05-2.45,8.81,8.81,0,0,0,.85-1c-.49-.17-1-.54-1.46-.48-2.22.26-4.43.64-6.64,1a6.29,6.29,0,0,1-4.41-.49,6.82,6.82,0,0,1-1.24-1.32,6.1,6.1,0,0,1,1.5-.73c.76-.13,1.56,0,2.32-.09a12.52,12.52,0,0,0,2-.68,9.35,9.35,0,0,0-1.92-.44c-2.63,0-5.26-.38-7.9.38-1.75.5-2.4,0-2.78-1.42-.26-1,.09-1.39,1-1.45s1.75,0,2.6-.08c.4,0,.75-.42,1.13-.64-.31-.31-.57-.81-.92-.9a12.67,12.67,0,0,0-3.75-.64c-2.17.15-4.32.62-6.48,1s-4.62.74-6.91,0c-.71-.25-1.06-.21-1.2.69-1.17,7.66-3.61,15-5.9,22.28a64,64,0,0,1-5.4,12.24,24.76,24.76,0,0,1-8.94,9.67,20.92,20.92,0,0,1-8.94,2.91,7.3,7.3,0,0,1-2.4-.44,5.34,5.34,0,0,0-5,1.64,1.05,1.05,0,0,0-.09.34,1.26,1.26,0,0,0,.39,0,9.6,9.6,0,0,1,1.41-.52,3.24,3.24,0,0,1,1.09.18c-.3.29-.55.68-.9.83a10.2,10.2,0,0,1-1.48.29,2.26,2.26,0,0,0-.57.34,4.15,4.15,0,0,0,.58.1,2.81,2.81,0,0,1,.82,0,8.31,8.31,0,0,1,1.09.6,4.25,4.25,0,0,1-1.16.34c-.45,0-.9-.2-1.35-.19-.24,0-.48.29-.72.45.17.19.32.53.51.55,2.19.29,3.37,2,4.58,3.62a4.6,4.6,0,0,0,3.52,1.94c1.29.07,1.91-.36,2.07-1.73.25-2.14.36-4.29.52-6.45a4.1,4.1,0,0,1,0-1,3.22,3.22,0,0,1,.61-.79c.15.25.41.5.42.76a19.13,19.13,0,0,1,0,2.73c-.12,1.58-.29,3.15-.49,4.72a3,3,0,0,1-3.35,2.82,5.72,5.72,0,0,1-4.47-2.69,6.34,6.34,0,0,0-3.52-2.82,2,2,0,0,0-2.13.49c-.35.33-.94.74-1.28.64-1-.31-1.64.26-2.34.81a11.44,11.44,0,0,1-6.09,2.33,22.48,22.48,0,0,0-3.36.58c-2,.5-2.61.12-3.28-1.87a16.64,16.64,0,0,1-.68-7.51,8,8,0,0,1,2.24-4.67A1.69,1.69,0,0,1,120,154a36.58,36.58,0,0,1,4.63,1.68,35.85,35.85,0,0,1,3.65,2c.49.29,1.47.37,1.07,1.32s-1.11.2-1.59-.05c-1.72-.89-3.37-1.93-5.1-2.8-3-1.52-4.21-1-5.13,2.38a12.33,12.33,0,0,0,.77,8.28c.15.34.75.76,1,.68,2.63-.75,5.52-.24,8-1.69a15.78,15.78,0,0,0,2.09-1.34c.3-.24.67-.89.56-1.1-.24-.48-.75-1.09-1.17-1.11a20.43,20.43,0,0,0-3.1.29,5,5,0,0,1-.85-.07c.2-.16.38-.42.6-.47,1.14-.29,2.29-.52,3.43-.78a3.66,3.66,0,0,0,.55-.21c-.2-.12-.41-.37-.59-.35-1.09.1-2.18.26-3.26.41a3.33,3.33,0,0,1-.81.13,2,2,0,0,1-.63-.34c.17-.12.33-.31.52-.35,1.43-.3,2.85-.68,4.3-.84s.88-1.33,1.21-2-.24-.78-.72-1.06a15.86,15.86,0,0,1-2.22-1.83c-.33-.28-.62-.74-1-.85a49.41,49.41,0,0,1-13.79-6.2c-3.16-2-6.61-3.46-9.61-5.79a66.18,66.18,0,0,1-11.12-11,34.1,34.1,0,0,1-5-7.55,15.75,15.75,0,0,1-1.56-9,6.87,6.87,0,0,1,2.85-4.71,1.79,1.79,0,0,1,1-.35c1.18.08,2.36.22,3.54.38.36.05.82.77,1-.13.12-.64.92-1.37-.13-2a10.54,10.54,0,0,1-4.41-4.17,3.45,3.45,0,0,1-.22-3.51c.42-.82.47-1.85.87-2.7a20,20,0,0,1,7.33-8.72,19.35,19.35,0,0,1,3.18-1.32,1.63,1.63,0,0,0,1.14-1.22,55.74,55.74,0,0,1,2.28-6.9c1.63-3.76,4.25-6.79,7-9.74a25.85,25.85,0,0,1,8.21-6.37,22.42,22.42,0,0,1,4.3-1.37c2.23-.5,4.49-.82,6.73-1.25a1.64,1.64,0,0,0,.88-.51,3.2,3.2,0,0,1,4.58-1c1.15.66,2.31,1.33,3.51,1.87a4.87,4.87,0,0,0,1.76.2c.18,0,.37-.17.56-.27-.09-.15-.15-.37-.28-.46-.83-.56-1.7-1.05-2.51-1.64a3.84,3.84,0,0,1-.68-1c.32-.19.65-.57,1-.54,2.36.26,4.71.56,7.06.93a2.77,2.77,0,0,0,3.15-1.06A12.41,12.41,0,0,1,156,52.48a9,9,0,0,1,4.39.59,13.12,13.12,0,0,1,3.37,1.9c.71.48,1,.34,1.34-.4a6.25,6.25,0,0,1,.33-.63c.36-.77.39-1.23-.62-1.53-1.93-.58-3.8-1.36-5.69-2.09a9.58,9.58,0,0,1-1.72-.87,2.66,2.66,0,0,1-1.29-3.28,1.84,1.84,0,0,1,1.51-1.62,6.72,6.72,0,0,1,6.45,2,18.08,18.08,0,0,1,3,3.89,4.46,4.46,0,0,0,2.27,2.09,12.1,12.1,0,0,1,5.86,5,7.67,7.67,0,0,1,.92,2.65c.22,1.46-.48,2.16-1.9,2.07a4.45,4.45,0,0,1-3.44-2.33c-1.14-1.74-2.29-3.47-3.35-5.26-.53-.88-.74-.8-1.28,0-.7,1-.95,1.78,0,2.93,3.65,4.31,4.39,9.46,3.38,14.95A36.32,36.32,0,0,1,168,77a2.73,2.73,0,0,0-.07,1.14,20.27,20.27,0,0,1,.55,3.65c-.13,2.72,1.08,5,1.81,7.47,1,3.48,2.09,7,3.16,10.42.61,2,0,3.89-.32,5.81-.06.33-.15.66-.2,1-.31,2.15-.16,2.45,1.91,2.89a13.77,13.77,0,0,0,6.24-.45c3.48-.87,7-1.51,10.48.07a1.63,1.63,0,0,1,1.19,1.7,1.94,1.94,0,0,1-1.34,1.82,6.68,6.68,0,0,1-1.47.27c-.37,0-.74,0-1.1,0a1.92,1.92,0,0,0-.54.22c.18.12.36.34.53.33a9.28,9.28,0,0,0,1.75-.19,22.52,22.52,0,0,1,9.77.14c.34.08.9.47.88.66a2.35,2.35,0,0,1-.58,1.47,4.9,4.9,0,0,1-3.78.91c-.17,0-.35.13-.53.2.15.07.31.2.47.19,1.68-.11,3.37-.19,5-.38,1.45-.17,2.88-.55,4.34-.69a2.82,2.82,0,0,1,1.87.43c1.12.85,1.05,1.76,0,2.71a8,8,0,0,0-.7.82c.42.09.86.35,1.25.27a4.78,4.78,0,0,1,4.84,1.61c.41.46,1.08.73,1.31,1.24a3.08,3.08,0,0,1,.17,2c-.1.34-.84.49-1.31.68a1.62,1.62,0,0,1-.62,0,3,3,0,0,0,.48.65c1.93,1.44,3.91,2.83,5.81,4.31a3.8,3.8,0,0,1,1.19,1.65c.47,1.33.2,1.79-1.13,2.13-.58.15-.73.49-.47.9a9.56,9.56,0,0,0,1.69,2.13c1.4,1.21,2.92,2.27,4.36,3.43a3.47,3.47,0,0,1,.59.95c.42.76,1,1.65.16,2.32s-1.53-.12-2.22-.59c-.32-.22-.66-.4-1-.6.14.42.18,1,.46,1.24a16.87,16.87,0,0,0,2.68,2c1,.58,2.27.84,3.24,1.51a9.74,9.74,0,0,1,2.49,2.55c.67,1,.28,1.66-.86,2a4.64,4.64,0,0,1-.82.12c-1.44.09-1.49.14-.89,1.49.47,1,1,2.1,2.28,2.18.15,0,.31.19.41.34a14.92,14.92,0,0,1,3.1,5.86c.15.75.21,1.53-1,1.25-.14,0-.57.44-.53.56a17.42,17.42,0,0,0,.73,1.66,43.28,43.28,0,0,1,1.76,4.31c.36,1.18,0,1.57-1.16,1.62-.59,0-.69.25-.64.78a4.16,4.16,0,0,0,.9,2.44,12,12,0,0,1,1.59,3.3c.13.36,0,1.13-.21,1.28-.71.45-.49,1-.47,1.63.16,4.79,2.4,8.85,4.14,13.09a24.84,24.84,0,0,0,4.79,7.64,9.67,9.67,0,0,0,1.55,1.11c-.3-.49-.64-1-.9-1.48a70.09,70.09,0,0,1-3.56-7.42,69.12,69.12,0,0,1-3.32-12.89,19.64,19.64,0,0,1,2-11.85c1.34-2.67,2.82-5.27,4.41-7.78a21.82,21.82,0,0,1,7-7,35.25,35.25,0,0,1,8.68-4.12,21.81,21.81,0,0,1,9.5-.33,31.39,31.39,0,0,1,10.9,3.67,18.5,18.5,0,0,1,5.18,4,35.7,35.7,0,0,1,7.41,12.5,75.35,75.35,0,0,1,2.55,11.46c.64,4.11,1,8.28,1.28,12.44.23,3.88.22,7.77.14,11.65a16,16,0,0,1-.9,4.34c-1.09,3.55-2.15,7.13-3.48,10.59-.78,2-2.12,3.79-3.08,5.74a26,26,0,0,1-4.9,6.69,23.73,23.73,0,0,1-3.74,2.86c-2.38,1.59-4.75,3.23-7.26,4.58a13.52,13.52,0,0,1-4.58,1.34,85.52,85.52,0,0,1-10,.81,63.86,63.86,0,0,1-9.67-.73c-4.11-.6-8.21-1.36-12.25-2.35a78.11,78.11,0,0,1-8.28-2.89c-.51-.19-.77-.18-1,.33-.67,1.92-1.38,3.83-2,5.78-.21.69-.35,1.55.67,1.91.17.06.22.47.34.72s.19.6.28.6c1.59-.07,1,1.2,1.11,2,.28,2.76.55,5.52.74,8.28a2.13,2.13,0,0,1-.55,1.38,25.69,25.69,0,0,1-8.69,6.37,78,78,0,0,1-8.51,3.19,18.67,18.67,0,0,1-5.93.81,10.92,10.92,0,0,1-4.1-1.45,2.12,2.12,0,0,1-.71-1.57,37.88,37.88,0,0,1,.2-6c.14-1,1-1.86,1.57-2.77a7.47,7.47,0,0,1,.64-.75c.63-.69,1.23-1.22,0-2.11a1.89,1.89,0,0,1,0-2.81,4.15,4.15,0,0,1,1.38-1.14c1.9-.79,3.88-1.39,5.76-2.25a21.71,21.71,0,0,0,3.48-2.21,1.4,1.4,0,0,0,.28-1c-.15-1.91-.29-3.83-.6-5.71-.07-.42-.77-.93-1.24-1-2.9-.66-5.83-1.21-8.74-1.8-.27-.06-.53-.12-.8-.2-1-.29-2-1.12-2.66.45a7.32,7.32,0,0,0-1,2.84c0,1.72.32,3.45.14,5.06s-.15,3-.33,4.51a39,39,0,0,1-1.24,5.63,2.17,2.17,0,0,1-1.19,1.21c-4.54,1.79-9.09,3.47-14.07,3.31-1.48-.05-3,.47-4.48.48a13.93,13.93,0,0,1-3.6-.61,2.21,2.21,0,0,1-1.57-2.41c0-3.79,1-7,4.44-8.9.46-.25.54-.42.32-1a2,2,0,0,1,1-2.72,5.8,5.8,0,0,1,5.77,0c1.6.81,2.66.34,2.69-1.46.05-4.41.11-8.85-1.89-12.92A3.78,3.78,0,0,0,184,227c-3.19-2.24-6.52-4.26-9.59-6.65a102.64,102.64,0,0,1-13.27-12.86,17.65,17.65,0,0,0-1.5-1.37c-.07.7-.2,1.39-.2,2.09,0,5.37,0,10.74,0,16.11,0,1.14.32,1.33,1.37,1.21a40.15,40.15,0,0,1,4.66-.08c.21,0,.53,0,.63.18.77,1.11,2.25,1.72,2,3.57a29.21,29.21,0,0,0,.11,3.73c0,2.11-.14,4.21-.18,6.32-.09,5.27-.2,10.55-.19,15.82a2.88,2.88,0,0,1-1.24,2.52c-5.08,3.74-10.19,7.44-15.3,11.15a8.27,8.27,0,0,1-1.4.89c-.49.23-1.19.61-1.54.42-1.42-.77-2.91,0-4.36-.49a25.29,25.29,0,0,0-4.48-.57c-1.53-.2-3.06-.51-4.6-.71-6.48-.83-12.95-1.7-19.44-2.44-3.48-.4-3.9-.63-4.21-4.33a55.21,55.21,0,0,1,.06-5.75c0-1.49.19-3,.22-4.45,0-1.31-.43-1.8-1.61-1.52a58.6,58.6,0,0,0-7.25,2c-1.51.56-2.74.62-4-.43-3.06-2.66-6.1-5.34-9.18-8-.58-.5-1.08-1.65-2.11-.65-.2-.3-.56-.6-.56-.91q0-2.08.15-4.17c.53-6.74,1.07-13.48,1.66-20.22a8.64,8.64,0,0,1,.71-2.89c1-2,2.94-2.67,4.81-3.14,4.21-1.07,8.47-2,12.72-2.84,2.33-.49,4.67-.89,7-1.25a2.84,2.84,0,0,1,1.4.32c1.35.55,1.79.25,1.84-1.23.06-1.81,1.35-2.88,2.49-3.86a9.71,9.71,0,0,1,3.11-1.36c.69-.24,1.43-.31,2.12-.57a1.08,1.08,0,0,0,.57-.78c-.11-2.16,1-3.74,2.24-5.23,2.39-2.87,5.68-4,9.09-4.55a21,21,0,0,0,8.44-3.54c.62-.41.52-.71.13-1.23-1.49-2-2.92-4-4.43-6a1.62,1.62,0,0,0-1-.44,1.67,1.67,0,0,0-.79.21c-5,2.08-10.44,2.2-15.58,3.75a30.89,30.89,0,0,0-10.11,5.6,2.22,2.22,0,0,0-.55,1.35c-.21,1.95-.82,2.68-2.63,3.15A60.47,60.47,0,0,1,95,194.63c-.64,0-1.39-.78-1.89-1.38s-.87-1.06-1.76-.5a1.19,1.19,0,0,1-1.82-.7,9.27,9.27,0,0,1-.46-3,1.86,1.86,0,0,0-.41-1.51q-3-3.62-6-7.31c-.4-.51-.64-.6-1.2-.16-1.41,1.13-2.58,1-3.6-.32s-.72-2.58.42-3.83a1.59,1.59,0,0,0,.18-.92c0-.16-.19-.32-.26-.49-.76-1.88-.65-2.31.72-3.81a16.68,16.68,0,0,1,9.91-5.36c2-.33,3.89-.84,5.81-.09a14,14,0,0,1,2.71,1.58,7.44,7.44,0,0,1,1.28,1.29c1.83,2.12,4.31,2.06,6.71,2.25a1.48,1.48,0,0,0,.64-.22,13,13,0,0,1,9.74-.45,23.6,23.6,0,0,0,2.88.94,6.83,6.83,0,0,0,2.83.2c3.42-.83,6.81-1.8,10.2-2.78a22.81,22.81,0,0,0,2.26-1c.65-.26.62-.58.18-1-.15-.16-.39-.37-.38-.55a5.65,5.65,0,0,1,.23-1.2,5.12,5.12,0,0,1,.85.67,10.82,10.82,0,0,1,1.54,3.72,21.62,21.62,0,0,0,1.79,3.88,66.64,66.64,0,0,0,8.21,12.33c.45.5.64.43,1.08.09a17.32,17.32,0,0,0,4.76-6.23,21,21,0,0,1,1.69-2.6c.11-.15.36-.19.55-.28a2.28,2.28,0,0,1-.07.65c-2.19,5.31-5.44,9.57-10.46,12.27a22.42,22.42,0,0,1-7.09,2.51,13.89,13.89,0,0,0-8.31,4,6,6,0,0,0-2,4.29c0,1.38.2,1.57,1.27.84,1.36-.93,2.62-2,3.91-3.1.86-.71,1.61-1.93,2.54-2.09,1.81-.3,3.22-1.45,4.9-1.93a6.51,6.51,0,0,1,1.47-.07,6.24,6.24,0,0,1-1.22,1,12.9,12.9,0,0,0-5.89,6.4,1.42,1.42,0,0,0-.21.52c0,.73.06,1.45.1,2.17a4.94,4.94,0,0,0,1.92-.3c2.34-1.42,4.61-2.94,6.88-4.46,1.27-.84,2.55-1.56,4.11-1.12.42.11,1.09.09.81.94,0,.06.22.28.35.3,1.54.19,3.09.36,4.64.53.89.09.87-.45.64-1.08a3.62,3.62,0,0,0-.38-.61c-1.34-2.21-1.41-2.57.46-4.38,2.44-2.38,4.88-4.87,8.05-6.15a57.35,57.35,0,0,1,7-2c.27-.07.64.31,1,.48-.23.25-.43.65-.7.72-1.28.33-2.61.48-3.87.87a29.94,29.94,0,0,0-4,1.55,2.15,2.15,0,0,0-.33,3.57,3.75,3.75,0,0,0,1.83.9c1.38.14,1.86,1.06,2.14,2.24a11,11,0,0,1,.21,1.28c.12.83-.14,2.05,1.38,1.37.12-.06.5.33.65.58a21.83,21.83,0,0,1,1.17,2.25,5,5,0,0,0,3.51,2.71,1.93,1.93,0,0,1,1,.59c1,1.28,1.86,2.61,2.8,3.9a3.21,3.21,0,0,0,.78.78c2.51,1.71,5,3.39,7.55,5.08a1,1,0,0,1,.31.29c.13.22.24.47.36.71a2.2,2.2,0,0,1-.83-.2c-1.88-1.26-3.61-2.9-5.64-3.77-2.46-1.06-3.81-3.08-5.33-5.07a5,5,0,0,0-1.85-1.3c-1.22-.57-2.42-1.1-3-2.53a17.15,17.15,0,0,0-1-1.88c-.29-.51-.6-.93-1.29-.76s-1.11-.3-1.24-1a8.27,8.27,0,0,1-.12-1c-.06-1.66-.48-2.87-2.34-3.31a3.32,3.32,0,0,1-2.71-3.36c0-.59-.19-.71-.62-.32-1.38,1.26-2.73,2.54-4.14,3.76-.71.62-.61,1.14-.09,1.81,2.79,3.55,5.47,7.2,8.36,10.65a98.77,98.77,0,0,0,16.66,15.54,35,35,0,0,0,5.83,3.75c2,.94,3.68,2.4,5.74,3.16s4.25,1.76,6.4,2.57a60.49,60.49,0,0,0,6.37,2.17c3.1.8,6.25,1.37,9.39,2,.71.15,1-.11.57-.82-.62-1.12-1.28-2.22-1.86-3.35a3.63,3.63,0,0,1-.13-1.12c.39.11,1,.07,1.15.34a16.23,16.23,0,0,1,3.12,6.79c.11.75.32,1,1.1,1.08,2,.09,4.1.29,6.15.48a5.43,5.43,0,0,0,5.48-3.14c.58-1.15,1.17-2.28,1.82-3.38.15-.26.54-.36.83-.53a3,3,0,0,1,0,1c-.22.65-.93,1.57-.74,1.82a3.68,3.68,0,0,0,1.94,1.23c3.82,1.11,7.64,2.22,11.51,3.15a69.44,69.44,0,0,0,17.68,1.9,54.75,54.75,0,0,0,11.78-1.66c2.09-.5,4-2.06,5.9-3.25a39.85,39.85,0,0,0,4.55-3.18,17.14,17.14,0,0,0,3.74-3.77,77.29,77.29,0,0,0,5.39-9.82,92.24,92.24,0,0,0,3.43-10.14,16.27,16.27,0,0,0,.73-4.09c.12-2.54,0-5.09,0-7.64ZM133.67,156.27c-.86-.29-1.71-.6-2.58-.86a2.55,2.55,0,0,0-.73,0c.2.23.37.64.6.67.9.12,1.81.12,2.72.16.18.27.38.54.55.81l1,1.62,1.69-1.21a2,2,0,0,0,.32-.38,1.51,1.51,0,0,0-.45-.24Zm57.89,94.52c-2.23.31-3.59-1.11-4.71-2.8-.73-1.08-.82-1.22-1.73-.26s-1.62,2-2.43,2.92a8.87,8.87,0,0,1-.78.72,5.81,5.81,0,0,1,.33-1.12c.29-.54.69-1,1-1.54a1.81,1.81,0,0,0,.1-.63,1.6,1.6,0,0,0-.5.13c-1.4.88-2.77,1.8-4.18,2.67a2.28,2.28,0,0,1-.84.16c.1-.27.13-.62.31-.8a5.19,5.19,0,0,1,1-.7c1.06-.66,2.13-1.3,3.2-1.95a2.52,2.52,0,0,0,.3-.27c-.09-.07-.19-.2-.28-.19-1.84.12-3.66-.55-5.49.78a5.76,5.76,0,0,0-2.29,4.73c0,.26.55.86.75.82,1.61-.35,3.19-.87,4.81-1.24a9.7,9.7,0,0,1,3.1-.38,20,20,0,0,0,8.29-1.08,5.88,5.88,0,0,0,6.48-5.91c.11-1.57,0-1.68-1.47-1.34-1.95.46-3.91.87-5.87,1.28a13.41,13.41,0,0,1-1.42.16,10.51,10.51,0,0,0,1.34.86C192.84,246.82,193.28,249,191.56,250.79ZM143.11,58.59c-.68-.08-1.35-.17-2-.23a1.47,1.47,0,0,0-.44.13,1.33,1.33,0,0,0,.24.33c2.44,1.78,3.27,4.74,4.76,7.21.16.28,0,.77,0,1.16-.31-.2-.76-.32-.92-.62A29.55,29.55,0,0,1,142.94,63a1.65,1.65,0,0,0-2-1.15,5.75,5.75,0,0,1-4.54-1.14,5.66,5.66,0,0,0-1.77-1.09c-.55-.16-1.48-.23-1.77.11-1.47,1.71-2.72,3.64-4.18,5.36-3,3.54-6.08,7-9.12,10.48a17.84,17.84,0,0,1-1.21,1.49c-1.8,1.59-3.61,3.18-5.47,4.69a22.58,22.58,0,0,1-4,2.91c-3.06,1.5-6.2,2.8-9.35,4.08-5,2.06-7.93,6-9.36,11.35a3.88,3.88,0,0,0,1.16,4.25,22.23,22.23,0,0,0,4.83,3.11,26.16,26.16,0,0,1,8.58,6.07c.46.5,1,.9,1.48,1.42s.88,1.34,1.44,1.88c1.7,1.66,3.43,3.31,5.21,4.89,2.57,2.28,5.34,4.25,8.76,4.76,3,.45,6.07.69,9.11,1,4.19.43,8.07-1.11,12-2.09.55-.14,1.06-.46,1.39.29s-.34.95-.82,1.16c-2.18,1-4.36,2-6.57,2.86a8.6,8.6,0,0,1-2.92.7c-2.73.07-5.46,0-8.19,0-4.25,0-8-1.9-11.7-3.75-3.38-1.72-6.36-4.29-9.53-6.46a4.75,4.75,0,0,0-1.23-.36,34.24,34.24,0,0,1-4.33-1.54c-.6-.29-.54-2.4-1.78-.54,0,.06-.34,0-.51-.12-.38-.16-.75-.36-1.12-.54-3.15-1.55-3.15-1.55-2.55-5.18a1,1,0,0,0-.23-.79,4,4,0,0,0-5.21,1.28,8,8,0,0,0-1.07,3.81A14,14,0,0,0,87.87,123a35.36,35.36,0,0,0,5.41,7.92,68.41,68.41,0,0,0,10,9.82c4,3.18,8.66,5.11,12.91,7.81a36.67,36.67,0,0,0,9.9,4.1c4.36,1.21,8.56,3.13,13.17,3.17.21,0,.4.2.61.28a10,10,0,0,0,5.9.57c6.65-1.38,11.16-5.75,14.51-11.55a64.69,64.69,0,0,0,4.68-10.22c1.5-4.1,2.62-8.37,3.81-12.6.9-3.21,1.79-6.43,2.43-9.71s1-6.71,1.48-10.08a5.87,5.87,0,0,0-.12-2.29c-1.29-4.24-2.68-8.44-4-12.69a11.89,11.89,0,0,1-.85-4.16c.34-4.31-1.94-7.45-3.89-10.77-.15-.26-.51-.6-.7-.55a8,8,0,0,1-3.56-.4c-4.34-.87-8.39-3-12.89-3.18-.22,0-.43-.37-.65-.57.25-.21.5-.6.74-.59a10.47,10.47,0,0,1,2.43.34c2,.58,3.91,1.33,5.9,1.85,2.17.57,4.38,1,6.57,1.42a2,2,0,0,0,.74-.13c0-.12-.08-.29-.17-.35-1.31-1-1.94-2.81-3.73-3.13-.1,0-.27-.18-.26-.25.15-1-.82-1.14-1.24-1.69-.72-.94-2.22-.94-2.54-2.35,0-.14-.28-.23-.44-.32a27.21,27.21,0,0,0-6-3.19C146.36,59,144.71,59,143.11,58.59ZM146,252.76h.14c0-4.22,0-8.45,0-12.67,0-1.58-.2-1.79-1.74-1.9-1-.07-2.1-.14-3.15-.15a16.49,16.49,0,0,1-3.78,0,4,4,0,0,0-2.44.21,3.73,3.73,0,0,1-4.08-.68A6,6,0,0,0,128.9,236a26.94,26.94,0,0,0-5-.93c-2.64-.28-5.29-.38-7.93-.6-.72-.06-1.23,0-1.44.89-.07.3-.41.54-.63.8-.06-.27,0-.69-.19-.8a1.68,1.68,0,0,0-1.09-.28c-.2,0-.34.52-.46.82-.93,2.27-.56,4.58-.32,6.93.38,3.72.6,7.45.76,11.18.1,2.53-.07,5.07,0,7.6s.38,2.67,2.7,3c6.65.87,13.3,1.79,20,2.69,3.17.43,6.34.91,9.51,1.26,1.64.17,1.68,0,1.63-1.67C146.29,262.16,146.15,257.46,146,252.76Zm1.31.53h-.12q.15,7.32.31,14.66a.52.52,0,0,0,.21.39,3.15,3.15,0,0,0,3.35-.57c4.79-3.66,9.66-7.22,14.53-10.78a2,2,0,0,0,1-1.86c-.07-3,0-6-.06-9.07,0-5.52,1-11,.34-16.53-.14-1.25-.1-1.32-1.14-.77-2.4,1.28-4.76,2.65-7.19,3.87-3.29,1.65-6.62,3.22-10,4.77a2,2,0,0,0-1.27,2.21C147.37,244.18,147.33,248.73,147.33,253.29Zm-11.87-19c-.17,1.42.36,2,1.74,2a3.27,3.27,0,0,0,1.21-.19c1.75-.7,3.47-1.44,5.2-2.18,3.64-1.55,7.28-3.09,10.91-4.65,2.92-1.26,3.78-2.88,3.78-6.11,0-6,.18-12,.17-17.95a3.77,3.77,0,0,0-1.12-2.13c-.19-.21-.94,0-1.4.16-1.08.36-2.13.85-3.22,1.16-4.49,1.28-9,2.47-13.48,3.77-2.32.68-2.78,1.77-2.82,3.73-.1,4.79-.29,9.58-.48,14.37C135.83,228.91,135.62,231.58,135.46,234.25Zm-18.19-13.06c-1.83.13-3.35.14-4.84.35-2.8.39-5.6.81-8.37,1.39a8.25,8.25,0,0,0-2.92,1.42c-.5.34-.66,1,.36,1.07a2,2,0,0,1,.55.21,2.34,2.34,0,0,1-.56.3c-1,.18-1.36.82-1.31,1.84s.06,1.82,0,2.73c-.24,6.38-.51,12.75-.74,19.12,0,.31.15.85.33.91a4.48,4.48,0,0,0,2.18.34c2.7-.69,5.33-1.64,8-2.29,1.08-.26,1.22-.61,1.15-1.7-.25-3.59-1.41-7.16-.21-10.82.49-1.49,1.08-2.76,2.45-3.42,1.77-.87,3.59-1.65,5.39-2.44.54-.23,1-.39.33-1a5.63,5.63,0,0,1-1.32-3.82c0-1.11,0-2.21-.13-3.31A2.21,2.21,0,0,0,117.27,221.19Zm-4.68-51.33c-2,.35-3.58.62-5.2.95-.46.09-.91.26-.24.87.89.82,1.64,1.8,2.53,2.61a2.48,2.48,0,0,0,1.42.57,2.32,2.32,0,0,1,2,1.08,3,3,0,0,1,0,3.49c-1.2,2.2-2.58,4.29-3.79,6.48a11.31,11.31,0,0,0-1,2.93c-.18.79.31,1.24,1.06.92a8.39,8.39,0,0,0,2.12-1.25,31.71,31.71,0,0,1,12.93-6.93c4.77-1.24,9.71-1.82,14.31-3.78.81-.35,1.07-.42.54-1.37-1.4-2.53-2.67-5.12-3.89-7.75-.37-.8-.67-.83-1.33-.48a14.56,14.56,0,0,1-2.4,1.05c-3.07.93-6.14,1.85-9.23,2.69a6.41,6.41,0,0,1-4.16-.23C116.28,171,114.29,170.41,112.59,169.86Zm22.51,48.78-.5,0c0-2.73,0-5.46,0-8.19a2,2,0,0,0-1.54-2.22c-1.64-.39-3.26-.89-4.91-1.21-2.77-.54-5.56-1-8.35-1.44-1-.16-1.52.36-1.52,1.43,0,1.23,0,2.46,0,3.69.19,4.74.31,9.49.64,14.22a6.74,6.74,0,0,0,1.33,3.69,17.93,17.93,0,0,0,3.77,2.8,1.77,1.77,0,0,0,.62.16c.48.09,1.08,0,1.43.31,1.73,1.38,3.42,2.83,5.07,4.32,1.16,1.06,1.54,1,1.94-.59a16.52,16.52,0,0,0,.5-2.38C134.13,228.34,134.61,223.49,135.1,218.64ZM87.91,239.28c-.36,1-.19,1.81,1.1,2,.19,0,.34.31.51.47,2.63,2.36,5.26,4.75,7.92,7.08.9.8,1,.75,1.22-.48a3.45,3.45,0,0,0,.1-.56c.19-5,.42-10,.56-15,.06-2.29-.26-4.61,0-6.87.31-2.87.44-3-1.94-4.48-.32-.2-.67-.34-1-.54q-2.11-1.44-4.2-2.91A12.38,12.38,0,0,0,90.75,217c-.54-.27-1.12-.42-1.11.66,0,.8-.3,1.6-.36,2.4C88.81,226.41,88.37,232.77,87.91,239.28Zm9.8-46.15v.08c2-.17,4-.3,6-.51a11.53,11.53,0,0,0,1.84-.52c-.33-.48-.65-1-1-1.45a.42.42,0,0,1-.08-.12c-.18-1-.74-.8-1.48-.67-.92.15-2,.63-2.73-.58a3.21,3.21,0,0,1,0-3.4,2.06,2.06,0,0,0,.34-.61,1.11,1.11,0,0,0-.1-.75c-1.35-2-2.68-4.09-4.13-6a13.27,13.27,0,0,0-2.78-2.91c-.36-.27-1.29.46-2,.52a25.51,25.51,0,0,1-2.9,0,32.45,32.45,0,0,1,.24-3.28c.14-.81-.7-2.27-1.43-2.11-2.5.54-5,1.1-7.48,1.72-1.11.28-1.29.86-.68,1.87a7.58,7.58,0,0,0,.68.9c2.88,3.52,5.77,7,8.64,10.54,1.71,2.1,3.35,4.28,5.08,6.36a3,3,0,0,0,1.56,1A11.22,11.22,0,0,0,97.71,193.13Zm19.79,24c-.11-2.06-.3-4.12-.3-6.17,0-1.14-.45-1.44-1.4-1.66-2-.47-4,.08-6,.25a89.48,89.48,0,0,0-15.3,3,13.57,13.57,0,0,0-2.92,1.22c-1,.53-1.08,1.32-.24,2,1.51,1.29,3.09,2.51,4.69,3.69a23.91,23.91,0,0,1,2.6,1.57c1.45,1.4,2.87,2.11,4.72.87a2.66,2.66,0,0,1,1.07-.22c3.48-.49,7-1,10.43-1.45C117.66,220,117.67,220,117.5,217.13ZM91.81,166.18c-2.8.42-5.9.78-8.66,2.45A26.39,26.39,0,0,0,81,170.18a1.83,1.83,0,0,0-.35.58,1.84,1.84,0,0,0,.6.1c1.91-.44,3.84-.84,5.73-1.38a1.66,1.66,0,0,1,2.05.6c1.18,1.57,1.18,1.57,2.81.6A2.35,2.35,0,0,1,95.13,174a.94.94,0,0,0,.1,1.33c1.14,1.55,2.18,3.18,3.32,4.73.77,1.06,1.68,2,2.47,3.05.51.67.88.66,1.54.12a2.65,2.65,0,0,1,4.25,2.76,11.72,11.72,0,0,1-1,2.29,2.2,2.2,0,0,0-.14,1.37,9.81,9.81,0,0,0,1.17,2.1,1.11,1.11,0,0,0,.88.47,33.5,33.5,0,0,0,3.39-1.1c.23-.09.37-.47.55-.72a4.2,4.2,0,0,0-.8.05,13.19,13.19,0,0,1-1.29.45c-2,.3-2.7-.45-2.34-2.56a13.11,13.11,0,0,1,2.5-5.22c.3-.42.81-.92.77-1.32-.22-1.84-.21-3.86-1-5.44-1.49-3-3.75-5.13-7.35-5.09a5.59,5.59,0,0,1-2.76-1,13.32,13.32,0,0,1-2.41-2.11A6.86,6.86,0,0,0,91.81,166.18Zm42.06,38.5c-.44-.23-1.06-.32-1.26-.68a2.83,2.83,0,0,1-.37-2.85c.74-1.37,1.53-2.71,2.28-4.08a10,10,0,0,0,.39-.95,3.88,3.88,0,0,0-.95.49,27.86,27.86,0,0,1-2.71,2.62c-1.4,1-2.95,1.79-4.44,2.67-2-.72-3.72.47-5.55.9a4,4,0,0,0-1.31.75c-.16.11-.25.36-.37.54a2.44,2.44,0,0,0,.59.24c2.48.4,5,.69,7.43,1.21s4.74,1.31,7.14,1.88a6,6,0,0,0,2.73.13c1.86-.45,3.67-1.15,5.5-1.74,4.13-1.33,8.56-1.58,12.47-3.72l.85-.46a4.3,4.3,0,0,0-.78-.76,3.43,3.43,0,0,0-1.15-.4c-3.52-.51-7.05-1-10.57-1.49a1.69,1.69,0,0,0-1,.33c-2.36,1.54-4.68,3.14-7.05,4.67A9.77,9.77,0,0,1,133.87,204.68Zm94.19,49.23c0-1.15,0-2,0-2.78a2.49,2.49,0,0,0-.2-.62,4.89,4.89,0,0,0-.46.45,17.45,17.45,0,0,1-2.38,2.9,28.41,28.41,0,0,1-4.34,2.67c-1.3.69-2.72,1.13-4,1.8a33.82,33.82,0,0,1-8.38,3,9.64,9.64,0,0,1-5,.08c-1.52-.47-1.5-.51-1.48,1.2,0,.33,0,.67,0,1a2.3,2.3,0,0,0,1.92,2.42,32.19,32.19,0,0,0,3.89.54c2.29.14,4.38-.79,6.49-1.54a37.64,37.64,0,0,0,11.68-6.15C227.49,257.48,228.86,256.07,228.06,253.91Zm-22.47,6.7,2-.33c4.27-.79,8.16-2.73,12.15-4.38a39.2,39.2,0,0,0,4.45-2.51,2.51,2.51,0,0,0,.51-.56c-.22,0-.43,0-.65,0a29.43,29.43,0,0,1-3.26-.26c-1.76-.33-3-1.58-4.13-2.92-.27-.32-.87-.73-1.08-.61s-.54.77-.76,1.2a3.27,3.27,0,0,0-.09.56c-.32,1.3-.62,2.6-1,3.88-.06.22-.35.37-.54.55a4.61,4.61,0,0,1,0-.74c.19-1.18.41-2.35.59-3.54,0-.14-.11-.31-.17-.46a1.44,1.44,0,0,0-.3.24c-1.33,1.92-2.64,3.85-4,5.76-.15.2-.5.25-.75.37,0-.29-.17-.64-.06-.86a9.83,9.83,0,0,1,.92-1.42c.64-.87,1.3-1.73,1.93-2.61a2.25,2.25,0,0,0,.19-.62,2.52,2.52,0,0,0-.49.13c-1.6.69-3.19,1.39-4.79,2.1a1.16,1.16,0,0,0-.46.29c-.92,1.19-1.89,2.34-2.71,3.6-1,1.49-.48,2.64,1.23,3C204.65,260.55,205,260.55,205.59,260.61Zm-18.83-31.88a23.22,23.22,0,0,1,.84,2.86c.29,2,.44,4,.73,6,.07.49.38,1.23.72,1.33a11.7,11.7,0,0,0,8.06,0,2.48,2.48,0,0,0,1-1.2c.46-.92.72-2,1.23-2.85s.29-1.05-.53-1.35c-2.72-1-5.42-2-8.1-3.06-1.15-.46-2.22-1.12-3.34-1.66A1.6,1.6,0,0,0,186.76,228.73Zm77.82-38.26.15.3c.89-.49,2.07-.75,2.59-1.51.71-1,.2-2.3-.63-3.27-.3-.36-.65-.67-.95-1a9.74,9.74,0,0,1-1.29-1.66c-1-1.94-2.06-3.92-.53-6.12a1.12,1.12,0,0,0,.09-.38,1.73,1.73,0,0,0-.39,0c-3.39.48-6.3,5.14-5.39,8.63A6.37,6.37,0,0,0,264.58,190.47ZM162.85,226.38a9.78,9.78,0,0,0-1.84.15c-.91.24-2.16.39-2.57,1.05-1.05,1.68-2.6,2.33-4.19,3l-13.34,5.89c-.21.09-.36.32-.54.49a2.8,2.8,0,0,0,.64.13c1.23,0,2.46.08,3.7.08.79,0,1.76.49,2.18-.79,0-.11.49-.08.75-.1a2.83,2.83,0,0,0,.88-.08c3.06-1.36,6.15-2.67,9.16-4.15,2.56-1.26,5-2.72,7.52-4.13a3.29,3.29,0,0,0,.71-.77,3.6,3.6,0,0,0-.95-.62A19,19,0,0,0,162.85,226.38Zm15.28,30.76,0-.16a62.09,62.09,0,0,0,8.32-.65c2.93-.6,5.73-1.87,8.62-2.73,1.58-.47,1.95-1.67,2.13-3.1.08-.6-.07-.62-.58-.38a22.15,22.15,0,0,1-4.31,1.75c-2.93.66-5.91,1.1-8.88,1.54s-5.95.76-8.93,1.19c-.19,0-.51.6-.45.71.26.45.58,1,1,1.17A24.13,24.13,0,0,0,178.13,257.14Zm-62.74-190a5.85,5.85,0,0,1,5.87,3.39c.33.81.65,1.06,1.29.25,2.19-2.82,4.43-5.62,6.63-8.43a3.47,3.47,0,0,0,.36-.86,2.72,2.72,0,0,0-.8,0A84.66,84.66,0,0,0,120,63.61c-1.81.63-3.39,2-5.07,3.07-.12.08-.17.29-.26.44a2.79,2.79,0,0,0,.38.07A1.5,1.5,0,0,0,115.39,67.16ZM219.9,244.67l0,.16c1.49-.2,3-.36,4.47-.64a1.39,1.39,0,0,0,.85-.86c.33-1,.53-2.11.76-3.18a5.27,5.27,0,0,0,.07-.79,2.78,2.78,0,0,0-.64.19,6.93,6.93,0,0,1-5.06.49,35.1,35.1,0,0,0-4.24-.26c-.69,0-1,.25-.89,1a7.39,7.39,0,0,1,0,1.82c-.11,1.25.16,1.81,1.39,2A22.28,22.28,0,0,0,219.9,244.67ZM113.79,72.11c2.32.23,2.63.37,4.61,2.27a.67.67,0,0,0,.44.21,2.77,2.77,0,0,0,1.55-3.27,5.11,5.11,0,0,0-7.16-2.49c-2,1-3.19,2.8-4.64,4.36-.1.1-.08.31-.12.47.17,0,.34-.07.5-.12Zm55.31-3.29a25.88,25.88,0,0,0-1.46-7.23c-.1-.27-.38-.45-.58-.67-.05.26-.13.53-.16.79a25.38,25.38,0,0,1-2.32,8.78,1.6,1.6,0,0,0,.19,1.24c.6,1,1.29,2,2,2.93a5.06,5.06,0,0,0,.65.66,2.77,2.77,0,0,0,.52-.79C168.33,72.63,168.71,70.72,169.1,68.82ZM164,57.69c-.09,0-.37-.29-.48-.23a35,35,0,0,0-5.65,3.65c-2,1.82-1.81,2,.35,3.72a4.68,4.68,0,0,1,.63.55c.5.56.94.41,1.39-.09A13,13,0,0,0,164,57.69Zm-33.86,71.78,4.08-.41a1.68,1.68,0,0,0,.49-.23,1.72,1.72,0,0,0-.44-.09,42.28,42.28,0,0,1-12.78-1,16.54,16.54,0,0,1-7.5-3.66c-2.67-2.39-5.26-4.88-7.9-7.31a3.4,3.4,0,0,0-.78-.41,13,13,0,0,0-.68,2.14c0,.29.32.79.62,1,3.83,2.38,7.33,5.29,11.55,7.08A38.69,38.69,0,0,0,130.14,129.47Zm29-84.37c-1,.4-1.9.3-2.14,1.52A1.89,1.89,0,0,0,158.29,49c1.46.63,3,1.2,4.46,1.74.94.34,1.91.61,2.87.86.22.06.49-.09.73-.15a2.09,2.09,0,0,0-.26-.63,35,35,0,0,0-3.59-4.06A13.53,13.53,0,0,0,159.12,45.1ZM93.38,113.69a4.17,4.17,0,0,0,.81,1.18,8,8,0,0,0,2,1,1.54,1.54,0,0,0,2.15-1.12c.42-1.11.82-2.24,1.16-3.38a1.08,1.08,0,0,0-.25-.91c-1.11-.65-2.26-1.26-3.43-1.8a.9.9,0,0,0-.85.27C94.38,110.43,93.92,112,93.38,113.69Zm72.8-52.36c-.27-.88-.45-1.45-.64-2-.08-.26-.21-.5-.28-.77a5.2,5.2,0,0,1-.07-.69,3.55,3.55,0,0,0-.34.71,9.25,9.25,0,0,1-.64,2.46,56.76,56.76,0,0,1-3.52,4.9c-.41.52-.5.83,0,1.29.69.69,1.38,1.39,2.06,2.1.83.87,1.12.88,1.46-.31C165,66.41,165.56,63.77,166.18,61.33Zm-4.48-5.42a14.94,14.94,0,0,0-9,3.28c-.56.45-.73.8,0,1.25s1.5,1.09,2.3,1.54a1,1,0,0,0,1-.11c1.42-2.29,3.64-3.41,5.8-4.64a13.66,13.66,0,0,0,1.31-.95Zm28.64,187.9.06.25c2.15-.6,4.29-1.21,6.44-1.79,1.35-.37,1.41-.49,1.23-1.87-.08-.67-.3-.77-.89-.53a12.29,12.29,0,0,1-6.71.56c-2-.35-2-.34-2.29,1.71-.14,1.14.13,1.54,1.21,1.67A7.53,7.53,0,0,0,190.34,243.81ZM157.17,53.35a10.75,10.75,0,0,0-2.4.8c-1.76,1.06-3.45,2.26-5.14,3.45a1.23,1.23,0,0,0-.31.79,5.33,5.33,0,0,0,1.55.84c.24.07.63-.25.89-.48a11.79,11.79,0,0,1,6-3.22c.85-.15,1.7-.33,2.54-.52a4.68,4.68,0,0,0,.79-.37,2.77,2.77,0,0,0-.76-.55C159.32,53.81,158.29,53.6,157.17,53.35Zm69.76,195.26.11,0c-.26-1.06-.48-2.13-.79-3.18a.8.8,0,0,0-.7-.35c-3.45.62-6.88,1.47-10.39.41-.25-.07-.66.47-1,.73a4.49,4.49,0,0,0,.52.62,2.26,2.26,0,0,0,2.17.34,11.84,11.84,0,0,1,8.77,1.79,2.59,2.59,0,0,1,.73.81,2.24,2.24,0,0,1,.16.72,4.39,4.39,0,0,0,.39-.86A4.76,4.76,0,0,0,226.93,248.61ZM99.27,115.68c.18.64.16,1.52.56,1.88a2.65,2.65,0,0,0,4.51-1.56,2,2,0,0,0-.32-1.49c-.74-.89-1.63-1.65-2.45-2.48-.53-.54-1-.45-1.27.22A6.71,6.71,0,0,0,99.27,115.68Zm74.67-54.31c.89-.16,1.21-.5,1.09-1.32a4.18,4.18,0,0,0-.43-1.35A11.91,11.91,0,0,0,168,53.05a2.47,2.47,0,0,0-.38,0,1.41,1.41,0,0,0,.09.48c1.48,2.23,2.94,4.48,4.5,6.64A6.62,6.62,0,0,0,173.94,61.37ZM218.86,247.7l-.08.23a8.6,8.6,0,0,0-1.35.18.68.68,0,0,0-.2.6c1.13,2.21,4.57,3.73,6.89,3a1.79,1.79,0,0,0,1.07-1c.08-.27-.42-1-.79-1.1C222.58,248.88,220.71,248.31,218.86,247.7ZM121.8,234v.08h3.41l.39,0c-.08-.14-.14-.33-.27-.41-1.3-.87-2.61-1.73-4-2.55a1.27,1.27,0,0,0-.9-.08c-1.65.52-3.28,1.08-4.91,1.65-.23.08-.41.33-.62.5a2.93,2.93,0,0,0,.73.27C117.73,233.61,119.77,233.78,121.8,234Zm8.6-72.58a9.81,9.81,0,0,0,1.07,2,1.47,1.47,0,0,0,1.43.15c.47-.25.75-.88,1.11-1.35-1-.59-.24-1.16-.1-1.85a4.38,4.38,0,0,0-.53-2.41c-.29-.63-.89-.65-1.5-.19C130.79,158.51,130.66,159.73,130.4,161.39ZM106,185.49a1.19,1.19,0,0,0-1.29-1.31,3.86,3.86,0,0,0-3.63,3.39,1.4,1.4,0,0,0,.61,1.11C103.16,189.34,105.92,187.25,106,185.49Zm98.63,67.73a12.68,12.68,0,0,0,1.38-1c.79-.8,1.56-1.62,2.32-2.45.4-.44.75-.93,1.13-1.4a9.29,9.29,0,0,0-1.78.46,19.93,19.93,0,0,0-3.11,1.77c-.3.21-.38.92-.38,1.4A3.65,3.65,0,0,0,204.59,253.22ZM90.29,175.37c1.46-.81,2.7-1.44,3.87-2.19.24-.15.44-.9.31-1.05a1.4,1.4,0,0,0-1.14-.49,2.85,2.85,0,0,0-2.24,1.65,1.21,1.21,0,0,1-.66.51c-.6-.63-.59.06-.59.34A5.32,5.32,0,0,0,90.29,175.37Zm101.27,73.46c0-1.12-1.83-2.78-2.8-2.42-.44.16-.75.74-1.12,1.14a27.31,27.31,0,0,0,2.84,2.13C190.93,250,191.58,249.65,191.56,248.83Zm21.76-.63c-.16-.25-.27-.53-.34-.52-.43.06-1,0-1.26.31-1.27,1.16-2.47,2.4-3.7,3.62a1.37,1.37,0,0,0-.19.36c.16,0,.34.09.46,0,1.34-.7,2.72-1.36,4-2.19C212.76,249.5,213,248.76,213.32,248.2Zm-32.11-5.4c-.73.35-1.57.69-2.33,1.15a1,1,0,0,0-.19,1,.93.93,0,0,0,.88.27,17.39,17.39,0,0,0,2.14-.91c.55-.25,1.07-.56,1.61-.84ZM81.62,178.41a13.61,13.61,0,0,0-1.53-1.24c-.32-.19-1-.37-1.11-.2a1.78,1.78,0,0,0-.48,1.33,1.57,1.57,0,0,0,2.63.79A4.5,4.5,0,0,0,81.62,178.41Zm31-.82a14.84,14.84,0,0,0-1-1.35c-.15-.17-.49-.15-.75-.22a6.77,6.77,0,0,0,0,.78c.09.61.22,1.22.32,1.83s.15,1,.22,1.48c.28-.46.58-.9.82-1.38A9.35,9.35,0,0,0,112.58,177.59Zm69.63,68.58v.06c.81-.14,1.62-.25,2.42-.45.22-.06.37-.41.55-.63-.21-.2-.48-.59-.64-.55-1.05.3-2.08.69-3.11,1.07-.09,0-.15.2-.23.3.11.07.21.18.32.19A5.12,5.12,0,0,0,182.21,246.17Zm93.27-61.28a.76.76,0,0,0,0-.15,12.36,12.36,0,0,0-3.73-6,1,1,0,0,0-.32-.12,2.53,2.53,0,0,0,.2.36c1.4,1.87,3.08,3.55,3.58,6,0,.09.16.14.24.21C275.45,185.07,275.47,185,275.48,184.89ZM91.67,191.27c-.51-.6-1-1.14-1.42-1.65,0,0-.22,0-.33.06a7.21,7.21,0,0,0,.44,1.58c.13.24.6.29.93.36C91.37,191.64,91.5,191.43,91.67,191.27Zm95.82,53.43.61-.16c-.19-.09-.38-.19-.58-.27a2.34,2.34,0,0,0-.63-.21,1.24,1.24,0,0,0-.44.11c.09.14.16.35.29.41A2.87,2.87,0,0,0,187.49,244.7Z"/><path d="M190.49,119.11c2.44.91,4.86,1.32,6.25,3.65a4.52,4.52,0,0,1,.43,1.2c.21.88-.24,1.31-1,1.24a3.17,3.17,0,0,1-1.49-.59c-1.14-.87-2.21-1.84-3.32-2.75a2.78,2.78,0,0,0-1-.67c-.68-.12-.91-.51-.68-1.07A3.91,3.91,0,0,1,190.49,119.11Zm.77,1c-.11.06-.3.12-.3.17a.5.5,0,0,0,.16.36c1.47,1.19,2.94,2.38,4.45,3.52.19.14.57,0,.86,0a4.14,4.14,0,0,0-.19-.79C195.24,121.19,193,121.13,191.26,120.13Z"/><path d="M208.35,131.78a5.31,5.31,0,0,1,1.22.65c1.4,1.54,2.79,3.09,4.1,4.71.25.31.14,1,.19,1.43-.45-.09-1.08,0-1.33-.31-1.26-1.42-2.43-2.93-3.61-4.42a4.12,4.12,0,0,1-.61-1A3.78,3.78,0,0,1,208.35,131.78Zm2.35,2.65h-.45c0,.12,0,.28.05.35.78.93,1.56,1.84,2.36,2.75.08.08.24.09.37.14,0-.17,0-.37,0-.49a19.05,19.05,0,0,0-1.22-1.72A11,11,0,0,0,210.7,134.43Z"/><path d="M213.63,150.4c0,1-.58,1.4-1.22.94a8.46,8.46,0,0,1-3.63-5.34c-.2-1,.56-1,1-.55,1.18,1.16,2.28,2.42,3.35,3.7A4.07,4.07,0,0,1,213.63,150.4Zm-3.08-3.51c-.08.51-.25.89-.14,1.09a9.37,9.37,0,0,0,1.2,1.71,6.42,6.42,0,0,0,1.18.87,7.59,7.59,0,0,0-.43-1.35,12.48,12.48,0,0,0-1.1-1.62A7.77,7.77,0,0,0,210.55,146.89Z"/><path d="M223.35,151.18c.37.23.59.28.66.42.58,1.17,1.15,2.34,1.67,3.54.07.16-.16.47-.25.71-.18-.11-.44-.18-.54-.35-.59-1-1.18-2-1.67-3.08C223.09,152.14,223.28,151.7,223.35,151.18Z"/><path d="M97.15,338.63c-.37.25-.59.51-.83.53s-.49-.46-.45-.53a1.51,1.51,0,0,1,.64-.59C96.61,338,96.84,338.33,97.15,338.63Z"/><path d="M159.75,86.12c-.12,6.61-1.83,11.41-4.85,15.66a23.85,23.85,0,0,1-4.08,4.2c-1.55,1.33-3.63,1.45-5.48,1.5-3.82.12-7.68,0-11.24-1.87a15,15,0,0,1-5.46-4.89,3.24,3.24,0,0,1-.19-3.4c1.23-2.45,2.59-4.82,3.85-7.26.25-.5,1.19-.93.36-1.73,0,0,.18-.4.32-.57.79-.92,1.55-1.9,2.41-2.74,2.21-2.14,4.46-4.24,6.72-6.33a15.68,15.68,0,0,1,7.76-3.7c2.5-.5,4.46.88,6.12,2.54A14.48,14.48,0,0,1,159.75,86.12ZM150.56,76a21.91,21.91,0,0,0-2.28.46,17.87,17.87,0,0,0-6.85,4.09,2.52,2.52,0,0,0-.38.64c.22,0,.43-.09.65-.12,1.52-.18,3.16-.82,4.56-.45a9.45,9.45,0,0,1,6.29,5.52c1.68,3.75,1.78,7.68,1.49,11.68a2.4,2.4,0,0,1-.44,1.33c-2,2.3-3.27,5.39-6.24,6.71-.12.06-.18.25-.27.38a2.61,2.61,0,0,0,.4,0,7.17,7.17,0,0,0,4.08-2.19,32.05,32.05,0,0,0,3.53-4.74,23,23,0,0,0,3.41-12.83A12.2,12.2,0,0,0,155,78.23C153.82,77.06,152.48,75.82,150.56,76Zm2.7,19.06A21.19,21.19,0,0,0,151,85.38c-1.32-2.45-5.08-4.62-7.83-3.75a12.62,12.62,0,0,0-7.5,5.38c-.22.36-.52.67-.75,1-1.43,2.27-2.87,4.55-4.27,6.84a4.78,4.78,0,0,0-.36,1.18c.27-.27.55-.54.8-.82,1.2-1.29,2.21-2.88,3.62-3.82a20.34,20.34,0,0,1,7.84-2.85,6.92,6.92,0,0,1,6.71,2.7,9.89,9.89,0,0,1,2.67,7.45,2.48,2.48,0,0,0,.17.74c.18-.2.48-.38.53-.61C152.84,97.59,153,96.33,153.26,95.07Z"/><path d="M150.67,72.32c2.26.38,4.59.31,6.5,1.21a8.31,8.31,0,0,1,4.52,6.25c.18,1-.41,1.53-1.29,1.17a4.89,4.89,0,0,1-1.68-1.34c-.9-1.07-1.65-2.27-2.56-3.34a4.38,4.38,0,0,0-1.47-1,22.42,22.42,0,0,0-4.1-1.86,6.58,6.58,0,0,0-3.19.25A24.14,24.14,0,0,0,139.26,78c-.41.3-.72.73-1.11,1.06a5.72,5.72,0,0,1-.76.47c.11-.33.12-.77.33-1a36,36,0,0,1,2.79-2.31A20.17,20.17,0,0,1,150.67,72.32Z"/><path d="M108.09,93.12c-.2.33-.34.62-.53.87-.77,1-1.55,2-2.37,2.93-.17.2-.5.26-.75.38,0-.28-.13-.65,0-.84.77-1.17,1.58-2.32,2.41-3.44a1.36,1.36,0,0,1,.8-.42C107.74,92.58,107.91,92.91,108.09,93.12Z"/><path d="M113.83,98.07c-.16.15-.27.35-.41.37-1.2.21-1.68,1.19-2.24,2.14-.13.22-.46.31-.69.46,0-.26-.07-.58,0-.78a18.79,18.79,0,0,1,1.74-2.55c.21-.25.82-.15,1.25-.14C113.62,97.57,113.7,97.86,113.83,98.07Z"/><path d="M130.28,262.17h-6.13a1.39,1.39,0,0,1-.54,0,8.43,8.43,0,0,1-.92-.53c.23-.32.41-.83.7-.91a10.32,10.32,0,0,1,2.53-.38c.71,0,1-.14,1.13-1,.31-3.23.71-6.45,1.08-9.68.14-1.28.32-2.56.45-3.84a3.29,3.29,0,0,0-.1-.82,2.91,2.91,0,0,0-.84.31c-.49.35-.91.8-1.39,1.17a2.4,2.4,0,0,1-.92.51,4.48,4.48,0,0,1-1.15-.07,5.53,5.53,0,0,1,.53-1.06c1.27-1.56,2.55-3.13,3.88-4.64.25-.28.75-.33,1.14-.49a3.56,3.56,0,0,1,.2,1c-.27,4-.54,8-.87,12-.16,1.9-.37,3.8-.7,5.68-.16.91.12,1.09.86,1.13a25,25,0,0,1,2.86.29c.29,0,.53.38.79.59-.27.22-.51.59-.81.64a10.55,10.55,0,0,1-1.78,0Z"/><path d="M152.15,243.54a6.16,6.16,0,0,1,4.22-5.3,2.79,2.79,0,0,1,.39-.1c.86-.08,1.77-.78,2.55.22a4.13,4.13,0,0,1,1.08,3.82c-.53,1.84-1.07,3.67-1.73,5.46-1,2.86-2.21,5.67-3.33,8.5-.08.21-.12.44-.18.65a2.19,2.19,0,0,0,.58-.19c1.52-1.06,3-2.14,4.54-3.2a16,16,0,0,1,1.83-1.25c.29-.15.91-.16,1,0a1.38,1.38,0,0,1,0,1.16,3.19,3.19,0,0,1-1,.94c-2,1.45-3.93,2.94-6,4.29a7.4,7.4,0,0,1-2.63.94c-.89.17-1-.36-.63-1.14,1.53-3.53,3.06-7.05,4.5-10.61.64-1.59,1.1-3.25,1.59-4.9a4.63,4.63,0,0,0,.17-1.7c-.13-1.57-1.28-2.28-2.63-1.6a4.5,4.5,0,0,0-2.6,3.12c-.08.35-.35.66-.42,1-.12.61-.27,1.23-1,1C152.36,244.67,152.29,244,152.15,243.54Z"/><path d="M141.78,225.83c.26-1.75.58-3.49.76-5.24s.23-3.73.35-5.59c.09-1.3.21-2.56,1.57-3.21a8.31,8.31,0,0,0,1.16-1,2.91,2.91,0,0,1,4.21.33,3.82,3.82,0,0,1,.06,2.54,6.61,6.61,0,0,1-1,2.16c-.44.67-.44.75.39.81a6.57,6.57,0,0,1,2.83.81c1.36.81,1.53,1.94.87,3.45-1.13,2.57-3.3,4-5.56,5.08a27.52,27.52,0,0,1-5.09,1.56c-.13,0-.48-.24-.49-.4a6.15,6.15,0,0,1,.07-1.28Zm7.51-6.9c-2.95.22-5.11,2.18-5.17,4.73,0,.83.29,1.07,1,.76a18.92,18.92,0,0,0,1.84-1,25.22,25.22,0,0,0,3.15-1.92,2.05,2.05,0,0,0,.67-1.68C150.64,219.43,149.81,219.23,149.29,218.93Zm-1.24-5c-.44-.14-.7-.33-.82-.25a5.5,5.5,0,0,0-1.26,1,7.48,7.48,0,0,0-.76,1.46c.39-.28.8-.53,1.17-.82S147.36,214.53,148.05,213.94Z"/><path d="M113.42,228.1c-.35-.06-.87,0-1.11-.24a2.29,2.29,0,0,1-.55-1.31c0-.17.46-.57.73-.59a5.84,5.84,0,0,1,2.13.09c.37.1.61.7.9,1.07a5.79,5.79,0,0,1-1,.76A4.53,4.53,0,0,1,113.42,228.1Z"/><path d="M105.22,229.52c-.53-.44-1.2-.74-1.22-1.08a1.51,1.51,0,0,1,.82-1.22,6.54,6.54,0,0,1,2.33.06c.09,0,.26.77.15.86C106.69,228.63,106,229,105.22,229.52Z"/><path d="M104,242.81c0-.94,1-1.94,1.76-1.79.5.1.92.61,1.37.94a10.44,10.44,0,0,1-1.94,1.3C104.86,243.39,104.33,242.94,104,242.81Z"/><path d="M105.07,236c-.1-.11-.52-.33-.56-.62-.1-.61,1.26-1.6,2.1-1.47a1.32,1.32,0,0,1,.88.81C107.58,235.38,106.46,236,105.07,236Z"/><path d="M130.31,221.42c-.19,2-.4,4.52-.7,7.09a2.11,2.11,0,0,1-.77,1.22c-.15.11-.75-.24-1-.53a1.55,1.55,0,0,1-.15-1c.17-1.32.38-2.65.59-4a1.41,1.41,0,0,0-.58-1.6c-.89-.58-1.74-1.21-2.62-1.81s-1.19-.2-1.23.7,0,1.81,0,2.71c0,.48.15,1.09-.56,1-.55-.07-1.44.2-1.41-.88,0-1.44.07-2.88.24-4.3.29-2.45.67-4.9,1-7.34a2,2,0,0,1,2-1.81,4.4,4.4,0,0,1,5.12,4.3C130.38,217.05,130.31,218.92,130.31,221.42Zm-1.95-3.63.11,0c-.26-1.36-.44-2.74-.81-4.05a1.51,1.51,0,0,0-1.19-.83,1.59,1.59,0,0,0-1.19.87,22.33,22.33,0,0,0-.66,3.07c-.12.65,0,1.06.79,1.14a4.27,4.27,0,0,1,1.58.7,7.5,7.5,0,0,1,1,.86c.12-.49.23-1,.34-1.45A1.38,1.38,0,0,0,128.36,217.79Z"/><path d="M91.61,234.13a25.8,25.8,0,0,1,.67-2.72c.14-.37.62-.84.93-.83a1.25,1.25,0,0,1,.81.92,14.78,14.78,0,0,1-.24,2.89,1,1,0,0,1-1.45.85C92,235.11,91.8,234.44,91.61,234.13Z"/><path d="M110.5,213.19l-1.36-.67c.32-.41.58-1,1-1.17a12,12,0,0,1,3-.62c.61,0,1,.19.47,1.06C112.81,213.1,111.44,212.45,110.5,213.19Z"/><path d="M100.15,215l-1.24-.83c.37-.36.69-.9,1.12-1.06a7.28,7.28,0,0,1,2.28-.34c.25,0,.63.34.74.62s-.22.65-.44.75C101.86,214.46,101.07,214.68,100.15,215Z"/><path d="M103.19,219.2l-1.31-.68c.34-.4.61-1,1-1.16a7.48,7.48,0,0,1,2.26-.43.89.89,0,0,1,.72.49.93.93,0,0,1-.38.8C104.79,218.59,104,218.86,103.19,219.2Z"/><path d="M115.28,214.65a5.43,5.43,0,0,1,1,.32c.21.11.48.38.48.57a.86.86,0,0,1-.43.64,15.62,15.62,0,0,1-2.21.67c-.77.17-1.12-.4-1.13-1.06,0-.26.47-.61.8-.76A8,8,0,0,1,115.28,214.65Z"/><path d="M108.94,180.92a1.53,1.53,0,0,1,0,.43c-.14.51-.31,1-.47,1.52a5.06,5.06,0,0,1-1-.81c-1.44-1.86-2.83-3.76-4.24-5.64a24.63,24.63,0,0,1-1.52-2,4.79,4.79,0,0,1-.28-1.46,4.17,4.17,0,0,1,1.2-.13C106.53,173.51,108.88,176.53,108.94,180.92Zm-1.09-.88a9.26,9.26,0,0,0-2.24-4.56,7.83,7.83,0,0,0-1.79-1.21c-.19-.1-.5,0-.75.07a4.37,4.37,0,0,0,.31.61c1.29,1.75,2.58,3.5,3.89,5.24a1.84,1.84,0,0,0,.41.31Z"/></g></g></svg>